<svg xmlns="http://www.w3.org/2000/svg" viewBox="0 0 1264.4 349.9"><defs><style>.cls-1{fill:#232323;}.cls-2{fill:#71c15e;}</style></defs><g id="Layer_2" data-name="Layer 2"><g id="Layer_2-2" data-name="Layer 2"><path class="cls-1" d="M20.5,159.82q-10.27-3.49-15.09-11.46A39.39,39.39,0,0,1,.07,129.52,79.25,79.25,0,0,1,2.84,106,150.3,150.3,0,0,1,12.29,80.1,192.81,192.81,0,0,1,27,54.21,196.35,196.35,0,0,1,45.15,31a140.93,140.93,0,0,1,20-18.21A68,68,0,0,1,85.6,2q10.28-3.27,15-1.22A9.4,9.4,0,0,1,106.35,8q1,5.11-.93,12.28a100.15,100.15,0,0,1-5.13,14.33,128.93,128.93,0,0,1-6.78,13.2,70.06,70.06,0,0,1-5.85,8.7,8.27,8.27,0,0,0-1,1.33,8,8,0,0,1-1.44,1.63,5,5,0,0,1-1.85,1,2,2,0,0,1-1.84-.31c-.55-.41-.59-1.09-.11-2a17.08,17.08,0,0,1,1.85-2.86,30.43,30.43,0,0,1,2.36-2.66l1.65-1.64a48.73,48.73,0,0,0,5.34-7.67A96.92,96.92,0,0,0,98.23,32a77,77,0,0,0,4-12,20.73,20.73,0,0,0,.31-10.13,7.58,7.58,0,0,0-5.34-5.52Q93,3,84.17,6.11q-10.28,3.68-22.08,14a181.43,181.43,0,0,0-22.8,24.25A219.87,219.87,0,0,0,19.48,74.26a144.89,144.89,0,0,0-13,31.11q-4.2,15.15-2.56,27.84a28.3,28.3,0,0,0,11.7,20.06,18.71,18.71,0,0,0,11.81,3.58,49,49,0,0,0,14.79-2.76,108.06,108.06,0,0,0,16.63-7.37,191.17,191.17,0,0,0,17.25-10.54q8.52-5.84,16.64-12.28t14.89-12.39q6.78-5.92,12-11t7.91-8.08c.68-.68,1.61-1.57,2.77-2.66s2.09-1.3,2.77-.62a2.71,2.71,0,0,1,.62,1.33c.13.62-.21,1.27-1,2q-4.11,4.09-12,11.46T102.75,119.6q-10,8.28-21.36,16.58A210.51,210.51,0,0,1,59,150.5a102.47,102.47,0,0,1-21,8.91Q27.9,162.27,20.5,159.82Z"/><path class="cls-1" d="M130.17,115q.81-2,2.36-6.55c1-3,2.26-6.27,3.69-9.82s3.09-7.16,4.93-10.85a66.2,66.2,0,0,1,6-9.82,25.24,25.24,0,0,1,6.78-6.55,8.66,8.66,0,0,1,7.49-1q2.67.82,4.83,4.51a82.09,82.09,0,0,1,4,7.77c1.24,2.74,2.4,5.29,3.49,7.68s2.26,3.86,3.5,4.4a5.32,5.32,0,0,0,3.69.31,14.86,14.86,0,0,0,3.6-1.54,22.07,22.07,0,0,0,3.28-2.35,11.65,11.65,0,0,1,3-2,1.76,1.76,0,0,1,2.57.72c.61,1,.3,1.88-.93,2.56s-2.91,1.5-4.62,2.46a27.69,27.69,0,0,1-5.23,2.25,12,12,0,0,1-5.34.41,8.16,8.16,0,0,1-4.93-3.07,22.15,22.15,0,0,1-3.19-5.33q-1.34-3.06-2.56-6.14a39.74,39.74,0,0,0-2.78-5.62,8.63,8.63,0,0,0-3.8-3.59c-2.05-.81-4.1-.41-6.16,1.23a27.64,27.64,0,0,0-5.95,7.06,81.62,81.62,0,0,0-5.55,10.75q-2.67,6.14-4.82,12.18t-3.91,11.25q-1.74,5.22-2.77,7.88c-.13.41-.34,1-.61,1.64a1.45,1.45,0,0,1-1.44,1q-3.28.83-3.29-3.27a67.77,67.77,0,0,1,.72-7.68q.72-5.41,1.75-12.28t2.36-14.32q1.33-7.47,2.57-13.82t2.26-10.64c.68-2.87,1.23-4.5,1.64-4.91q3.07-2.46,4.11,2c0,.14-.18.86-.52,2.15l-1.13,4.3q-.62,2.35-1.23,4.5c-.41,1.44-.69,2.36-.82,2.77q-1,4.1-2,9.1t-1.85,10.34q-.93,5.33-1.75,10.44T130.17,115Z"/><path class="cls-1" d="M194.45,97.39a56.39,56.39,0,0,0,.51,10.13,25.14,25.14,0,0,0,2.87,9,13.17,13.17,0,0,0,5.75,5.52c2.4,1.17,5.45,1.06,9.14-.3a28.87,28.87,0,0,0,10.07-6,56.9,56.9,0,0,0,7.6-8.6A79.36,79.36,0,0,0,236,98q2.35-4.5,4.21-8c.69-1.23,1.37-1.7,2.06-1.43s.95,1.3.82,3.07q-.42,4.92-4.31,11.26a60.18,60.18,0,0,1-9.55,11.77,53.65,53.65,0,0,1-12.33,8.9q-6.68,3.48-12.42,2.66t-9.76-7.06q-4-6.24-4.41-20.16c-.68.41-1.23.38-1.64-.1a2.59,2.59,0,0,1-.62-1.74,3.49,3.49,0,0,1,.62-2,2.29,2.29,0,0,1,2.05-.92,27.49,27.49,0,0,1,1.95-9.52,62.53,62.53,0,0,1,5-10.33,65.24,65.24,0,0,1,7-9.52,39.57,39.57,0,0,1,8-7.06,16.45,16.45,0,0,1,8-2.87,9,9,0,0,1,7,2.87,7.66,7.66,0,0,1,2.15,4.91,11,11,0,0,1-1,5.12,24,24,0,0,1-3,4.81c-1.24,1.57-2.33,2.9-3.29,4A70.33,70.33,0,0,1,209.64,88.9,72.2,72.2,0,0,1,194.45,97.39Zm.61-4.71a63.49,63.49,0,0,0,14.17-8.9,95.15,95.15,0,0,0,12.12-12q4.31-5.32,4.62-8.39c.21-2.05-.48-3.28-2.05-3.69s-3.77,0-6.58,1.23a30.44,30.44,0,0,0-8.52,5.94,50.56,50.56,0,0,0-8.21,10.54A45.11,45.11,0,0,0,195.06,92.68Z"/><path class="cls-1" d="M275.15,69.35c.14-.27.59-1.23,1.34-2.86A28.46,28.46,0,0,1,279.06,62c.95-1.36,1.81-2.11,2.56-2.25s1.13,1.1,1.13,3.69a32.33,32.33,0,0,1-1.23,5.52q-1.23,4.5-2.87,10.64t-3.08,13.1a77.84,77.84,0,0,0-1.65,13,31.77,31.77,0,0,0,1,10.13q1.23,4.09,5.13,4.5,4.51.61,9.45-3.07a58.17,58.17,0,0,0,9.34-8.8,91.37,91.37,0,0,0,7.71-10.23q3.27-5.11,4.72-7.57c.82-1.5,1.54-2,2.16-1.54s.71,1.33.3,2.56a37.91,37.91,0,0,1-3.9,7.68,85.66,85.66,0,0,1-6.88,9.41,86.68,86.68,0,0,1-8.52,8.9,34.2,34.2,0,0,1-8.83,6,11.87,11.87,0,0,1-7.91,1c-2.39-.62-4.21-2.7-5.44-6.25a27.35,27.35,0,0,1-1.85-8.08,67.85,67.85,0,0,1-.2-9.11q.19-4.5.71-8.49c.35-2.66.65-4.74.93-6.25l-7.6,14.74c-1.37,2.59-2.74,5.12-4.11,7.57a58.63,58.63,0,0,1-4.72,7.17q-6.57,8.6-10.68,9.1c-2.74.35-4.75-1-6.06-3.88s-1.85-7-1.64-12.28a77.71,77.71,0,0,1,2.46-16.28,74.08,74.08,0,0,1,6.06-15.86q3.9-7.47,9.24-11.15a17.17,17.17,0,0,1,5.24-2.15,16,16,0,0,1,6-.31,13.72,13.72,0,0,1,5.44,1.95A9.56,9.56,0,0,1,275.15,69.35Zm-1.84,4.3a5.62,5.62,0,0,1-1.75-2.15,8.13,8.13,0,0,0-.82-1.74,4.85,4.85,0,0,0-1.85-1.53,14.27,14.27,0,0,0-4.62-1.13q-4.72-.61-8.93,3.79a44,44,0,0,0-7.5,11,73.37,73.37,0,0,0-5.24,14.22,64,64,0,0,0-2.15,13.51q-.21,5.94,1.44,8.7c1.09,1.84,3.08,1.81,6-.1q2.67-1.84,6.47-7.78t7.5-13q3.69-7,6.77-13.71T273.31,73.65Z"/><path class="cls-1" d="M322.8,53.59c-.41,1.78-1.06,4.64-1.95,8.6s-1.78,8.36-2.67,13.2-1.64,9.93-2.26,15.25a100.77,100.77,0,0,0-.72,14.73,37.3,37.3,0,0,0,1.95,11.57c1.16,3.21,3.05,5.15,5.65,5.83a10.74,10.74,0,0,0,8.73-1.84,42.34,42.34,0,0,0,7.08-5.94,57.81,57.81,0,0,0,4.93-5.63q2.46-3.17,4.62-6.44t3.9-6.14a51.79,51.79,0,0,0,2.78-5.12c.54-1.09,1-1.67,1.43-1.74a1.71,1.71,0,0,1,1.24.31c1.09.54,1.36,1.57.82,3.07a47.13,47.13,0,0,1-3.49,6.75,85,85,0,0,1-6.58,9.42,98.66,98.66,0,0,1-8.31,9.21,30.71,30.71,0,0,1-8.53,6.14,15.29,15.29,0,0,1-10.88,1.53c-3.42-.88-6.09-4.06-8-9.51a41.32,41.32,0,0,1-1.64-13.92,155.47,155.47,0,0,1,1.44-17.4q1.23-9,3.08-17.5t3.08-14l-3.5.61q-2.25.42-4.62.72c-1.57.21-3.08.38-4.51.51a10.1,10.1,0,0,1-3,0,5.16,5.16,0,0,1-2.67-1.53c-.69-.75-.27-1.54,1.23-2.36l9.14-.81q4.41-.42,8.93-1.23a20,20,0,0,0,.72-3.18l1.23-6.65q.72-3.88,1.85-8.08c.75-2.8,1.51-5.36,2.26-7.68a28.93,28.93,0,0,1,2.26-5.42c.75-1.3,1.54-1.74,2.36-1.33.27.27.72.75,1.34,1.43s.51,1.78-.31,3.28L323.83,49.5c.95-.14,2.66-.34,5.13-.62s5.06-.51,7.8-.71,5.27-.31,7.6-.31,3.83.2,4.52.61a4.6,4.6,0,0,1,2.05,2.36c.41,1-.2,1.53-1.84,1.53h-7.91c-2,0-3.8,0-5.44.11s-3.43.2-5.34.41S326,53.32,322.8,53.59Z"/><path class="cls-1" d="M394.06,90.43c.41-1.09,1.09-1.46,2.05-1.12a1.59,1.59,0,0,1,1,2.15q-.61,3.27-4,8.18a82.87,82.87,0,0,1-7.91,9.72,122.86,122.86,0,0,1-9.14,8.81,40.55,40.55,0,0,1-7.91,5.62q-6.36,3.49-10.88.82t-4.72-12.28a75.78,75.78,0,0,1,.72-9.92c.48-3.62,1.12-7.23,1.95-10.85S357,84.43,357.92,81a63,63,0,0,1,3.08-8.8c.68-1.91,1.16-3.41,1.43-4.51a2.93,2.93,0,0,1,1.24-2c1.77-.68,2.87-.62,3.28.2a4.23,4.23,0,0,1,.1,3.07,26,26,0,0,1-1.33,3.69,11.92,11.92,0,0,1-1,2,61.57,61.57,0,0,0-3.49,9.52q-1.84,6.24-3.28,13.2a78.28,78.28,0,0,0-1.65,13.2c-.13,4.17.41,7.34,1.65,9.52a4.06,4.06,0,0,0,4.31,2.35A16.37,16.37,0,0,0,368.7,120a44,44,0,0,0,7.49-5.84,89.33,89.33,0,0,0,7.4-7.88,95.48,95.48,0,0,0,6.26-8.39A50.71,50.71,0,0,0,394.06,90.43Zm-22.8-36.84A1.18,1.18,0,0,1,370,52.47a3.74,3.74,0,0,1,.21-2.15c.68-1.09,1.23-2,1.64-2.87a13.59,13.59,0,0,0,1-3.27,5.21,5.21,0,0,1,1-2.46,2.34,2.34,0,0,1,2.26-.1c1,.34,1.3.85,1,1.53a11.34,11.34,0,0,1-.51,2.66,23.14,23.14,0,0,1-1.34,3.59,16.55,16.55,0,0,1-1.85,3.07A2.33,2.33,0,0,1,371.26,53.59Z"/><path class="cls-1" d="M394.47,110.69q-.41-2.85-.72-9.41c-.21-4.37-.27-8.94-.21-13.71a111.67,111.67,0,0,1,.93-13.2c.54-4,1.44-6.66,2.67-7.88A4.51,4.51,0,0,1,400,64.85c.82,0,1.24,1,1.24,2.86a45.21,45.21,0,0,1-.72,5.53q-.72,4.31-1.44,10t-1.34,12.07a76.52,76.52,0,0,0-.3,11.77,27.56,27.56,0,0,0,1.74,8.91q1.44,3.48,4.52,3.48c1.78,0,3.56-1,5.34-3.07a45.61,45.61,0,0,0,4.93-7q5.34-10,10.47-20.37t11.09-21.8a11.61,11.61,0,0,1,.72-1.84c.48-1.09,1.06-2.35,1.75-3.78s1.4-3,2.15-4.61a31,31,0,0,1,2.36-4.3q1.65-2.66,3.39-2.25c1.16.28,1.61,1.16,1.34,2.66q0,.82-2.16,5.32t-5.44,11.06q-3.28,6.54-7.39,14.32t-8,14.74Q423,101.08,421,105t-4.62,7.78A64.17,64.17,0,0,1,411,119.8a12.13,12.13,0,0,1-5.65,4,6.18,6.18,0,0,1-4.21-.2,7.76,7.76,0,0,1-3.08-2.76,19.41,19.41,0,0,1-2.26-4.61A29.56,29.56,0,0,1,394.47,110.69Z"/><path class="cls-1" d="M449.92,97.39a56.39,56.39,0,0,0,.51,10.13,25,25,0,0,0,2.88,9,13.06,13.06,0,0,0,5.75,5.52c2.39,1.17,5.44,1.06,9.13-.3a28.87,28.87,0,0,0,10.07-6,56.9,56.9,0,0,0,7.6-8.6A79.36,79.36,0,0,0,491.5,98q2.37-4.5,4.21-8c.69-1.23,1.37-1.7,2.06-1.43s1,1.3.82,3.07q-.42,4.92-4.31,11.26a60.18,60.18,0,0,1-9.55,11.77,53.65,53.65,0,0,1-12.33,8.9q-6.67,3.48-12.42,2.66t-9.76-7.06q-4-6.24-4.41-20.16c-.68.41-1.23.38-1.64-.1a2.59,2.59,0,0,1-.62-1.74,3.49,3.49,0,0,1,.62-2,2.29,2.29,0,0,1,2.05-.92,27.49,27.49,0,0,1,1.95-9.52,62.53,62.53,0,0,1,5-10.33,64.58,64.58,0,0,1,7-9.52,39.26,39.26,0,0,1,8-7.06,16.45,16.45,0,0,1,8-2.87,9,9,0,0,1,7,2.87,7.66,7.66,0,0,1,2.15,4.91,11.08,11.08,0,0,1-1,5.12,24.52,24.52,0,0,1-3,4.81q-1.84,2.35-3.29,4A70,70,0,0,1,465.11,88.9,72.2,72.2,0,0,1,449.92,97.39Zm.61-4.71a63.49,63.49,0,0,0,14.17-8.9,95.15,95.15,0,0,0,12.12-12q4.32-5.32,4.62-8.39c.21-2.05-.48-3.28-2.05-3.69s-3.77,0-6.57,1.23a30.33,30.33,0,0,0-8.53,5.94,50.56,50.56,0,0,0-8.21,10.54A45.32,45.32,0,0,0,450.53,92.68Z"/><path class="cls-1" d="M710.94,93.71a218.79,218.79,0,0,1-17.46,17.91Q683,121.34,670.38,131t-26.8,18.42a255.74,255.74,0,0,1-28.24,15.25,168,168,0,0,1-27.42,9.92,67.54,67.54,0,0,1-24.44,2.25q-10.47-1-11.91-6.75t4.31-13.92a62.4,62.4,0,0,1,11.71-12.79,125.29,125.29,0,0,1,15-10.74A173,173,0,0,1,599,123.69l15.81-7.47A243.66,243.66,0,0,0,620.16,88q1.86-14.33,4.73-28.45,1.23-6.56,2.26-13.72t2.05-14.32q1-7.17,2.16-14a110.06,110.06,0,0,1,2.77-12.59c-1.92-.14-5.27-.27-10.06-.41s-10-.07-15.51.2-11,.76-16.33,1.44-9.44,1.77-12.32,3.27q-5.34,2.86-4.93,6.14a11.23,11.23,0,0,0,3.6,6.45,42.43,42.43,0,0,0,7.6,5.93c2.94,1.85,5.23,3.38,6.88,4.61a5.78,5.78,0,0,0,1.43.92,8.51,8.51,0,0,1,1.85,1.23,4.14,4.14,0,0,1,1.13,1.43c.21.48,0,.92-.51,1.33a3.44,3.44,0,0,1-3.7-.1,15.12,15.12,0,0,1-2.87-2.15q-3.3-2.66-8.42-6.34a43.79,43.79,0,0,1-8.42-7.68c-2.2-2.66-3.22-5.29-3.08-7.88s2.67-4.91,7.59-7a59.12,59.12,0,0,1,13.25-3.78,119.23,119.23,0,0,1,13.86-1.44q7-.3,14.07-.1l13.86.41q15.4.41,31.63,2.05a164.56,164.56,0,0,1,30.09,5.73,77.12,77.12,0,0,1,23.92,11.46,33.67,33.67,0,0,1,13.14,19,35.41,35.41,0,0,1,.72,13.41,51.44,51.44,0,0,1-3.59,13,76.18,76.18,0,0,1-6.57,12.28,136.64,136.64,0,0,1-8.22,11.25q1.44-.19,6.68-.71T732,88c3.9-.28,7.42-.44,10.57-.52s4.86,0,5.14.31a6.33,6.33,0,0,1,1.43,2c.28.68-.2,1.23-1.43,1.64q-9.24,0-18.38.61T710.94,93.71Zm-96.53,26.81q-3.69,1.64-9.55,4.4t-12.32,6.45q-6.46,3.67-13,8.08a122.48,122.48,0,0,0-12,9.11,56,56,0,0,0-8.83,9.41,17,17,0,0,0-3.6,9,5.13,5.13,0,0,0,3.6,5.53,22.21,22.21,0,0,0,9.65.92,94.83,94.83,0,0,0,12.94-2.15q7.08-1.65,13.55-3.79t11.4-4c3.29-1.23,5.54-2.12,6.78-2.66a283.71,283.71,0,0,0,49.7-28.35,260.41,260.41,0,0,0,42.71-38.17,329.91,329.91,0,0,0-44.25,9.21,342.38,342.38,0,0,0-42.82,15.15c-.28,2-.52,3.65-.72,4.81s-.38,2.28-.52,3.37-.27,2.22-.41,3.38-.41,2.76-.82,4.81c-.27,2.73-.72,4.54-1.33,5.43s-1.2,1.22-1.75,1a2.65,2.65,0,0,1-1.33-1.74,5.15,5.15,0,0,1-.11-3.07ZM637.83,5.7q-4.11,27.42-9,54.44t-9.65,54.24a328.06,328.06,0,0,1,44.15-15.25,337.68,337.68,0,0,1,45.8-8.9,128.13,128.13,0,0,0,11.19-15.15,58.08,58.08,0,0,0,7.29-17.19Q730.24,46,727,37.52A33.24,33.24,0,0,0,716.48,23.3a57.29,57.29,0,0,0-17.35-9.21,134.3,134.3,0,0,0-21-5.32,216.08,216.08,0,0,0-21.57-2.56q-10.68-.72-18.89-1.13Z"/><path class="cls-1" d="M750,97.39a57.36,57.36,0,0,0,.52,10.13,25.14,25.14,0,0,0,2.87,9,13.17,13.17,0,0,0,5.75,5.52c2.4,1.17,5.45,1.06,9.14-.3a29,29,0,0,0,10.07-6,56.29,56.29,0,0,0,7.59-8.6,78.11,78.11,0,0,0,5.65-9.1q2.36-4.5,4.21-8c.68-1.23,1.37-1.7,2.06-1.43s1,1.3.82,3.07q-.42,4.92-4.32,11.26a59.46,59.46,0,0,1-9.55,11.77,53.38,53.38,0,0,1-12.32,8.9q-6.68,3.48-12.42,2.66t-9.76-7.06q-4-6.24-4.41-20.16c-.69.41-1.24.38-1.65-.1a2.59,2.59,0,0,1-.61-1.74,3.48,3.48,0,0,1,.61-2,2.3,2.3,0,0,1,2.06-.92,27.49,27.49,0,0,1,2-9.52,62.53,62.53,0,0,1,5-10.33,64.52,64.52,0,0,1,7-9.52,39.57,39.57,0,0,1,8-7.06,16.45,16.45,0,0,1,8-2.87,8.94,8.94,0,0,1,7,2.87,7.62,7.62,0,0,1,2.16,4.91,11.09,11.09,0,0,1-1,5.12,24,24,0,0,1-3,4.81c-1.24,1.57-2.33,2.9-3.29,4A70.33,70.33,0,0,1,765.15,88.9,72.27,72.27,0,0,1,750,97.39Zm.62-4.71a63.72,63.72,0,0,0,14.17-8.9,95.15,95.15,0,0,0,12.12-12q4.3-5.32,4.62-8.39t-2.05-3.69q-2.37-.61-6.58,1.23a30.44,30.44,0,0,0-8.52,5.94,50.56,50.56,0,0,0-8.21,10.54A45.11,45.11,0,0,0,750.57,92.68Z"/><path class="cls-1" d="M811,106.4q5.13,5.11,5,10.44A18.34,18.34,0,0,1,812.59,127a34.48,34.48,0,0,1-8.62,8.59,41.44,41.44,0,0,1-10.89,5.63A22.37,22.37,0,0,1,783,142.42a6.8,6.8,0,0,1-6-4.5,7.13,7.13,0,0,1-.41-4.71,15.23,15.23,0,0,1,2-4.3,18,18,0,0,1,3.19-3.68c1.23-1.09,2.39-2.12,3.49-3.07a123.19,123.19,0,0,1,9.86-8.09q5.13-3.78,9.85-7.88-8.41-6.54-9.24-14.63a23.74,23.74,0,0,1,4.11-15.66,7.84,7.84,0,0,1,1.64-2.15q1.44-1.53,3.39-3.27t4-3.38a13,13,0,0,1,3.91-2.25q2.25-1,2.87,1.12a2.49,2.49,0,0,1-1.23,3.18,54.64,54.64,0,0,0-9.14,6.75A18.15,18.15,0,0,0,800,84.09a15.25,15.25,0,0,0,.41,9.52q1.74,5,7.91,10.54,1.23-.83,4-2.77t6.06-4.19c2.19-1.5,4.35-2.94,6.47-4.3a58.38,58.38,0,0,1,5.24-3.07,2.84,2.84,0,0,1,2-.41,1.3,1.3,0,0,1,.92,1,2.3,2.3,0,0,1-.2,1.64,3.66,3.66,0,0,1-1.44,1.43q-2.06,1-4.93,2.77c-1.92,1.16-3.87,2.38-5.85,3.68s-3.84,2.53-5.55,3.68S811.9,105.72,811,106.4Zm-2.67,2.66q-5.76,3.89-11.3,8.39t-10.88,9.82q-6.36,6.35-5.65,9c.48,1.77,2.13,2.56,4.93,2.35a32.41,32.41,0,0,0,10.27-3,40.86,40.86,0,0,0,10.68-6.76,18.49,18.49,0,0,0,5.95-9.31Q813.62,114.38,808.28,109.06Z"/><path class="cls-1" d="M869.89,90.43c.41-1.09,1.09-1.46,2.05-1.12a1.59,1.59,0,0,1,1,2.15q-.62,3.27-4,8.18a83.78,83.78,0,0,1-7.9,9.72,124.83,124.83,0,0,1-9.14,8.81,40.55,40.55,0,0,1-7.91,5.62q-6.37,3.49-10.88.82t-4.73-12.28a75.78,75.78,0,0,1,.72-9.92q.72-5.43,2-10.85T833.74,81a64.27,64.27,0,0,1,3.08-8.8c.69-1.91,1.16-3.41,1.44-4.51a2.9,2.9,0,0,1,1.23-2c1.78-.68,2.88-.62,3.29.2a4.23,4.23,0,0,1,.1,3.07,27.29,27.29,0,0,1-1.33,3.69,12.81,12.81,0,0,1-1,2A60.53,60.53,0,0,0,837,84.19q-1.85,6.24-3.29,13.2a77.21,77.21,0,0,0-1.64,13.2q-.21,6.25,1.64,9.52a4.07,4.07,0,0,0,4.31,2.35,16.26,16.26,0,0,0,6.47-2.45,43.62,43.62,0,0,0,7.5-5.84,89.23,89.23,0,0,0,7.39-7.88,93.69,93.69,0,0,0,6.27-8.39A51.65,51.65,0,0,0,869.89,90.43Zm-22.8-36.84a1.16,1.16,0,0,1-1.23-1.12,3.82,3.82,0,0,1,.2-2.15c.69-1.09,1.24-2,1.65-2.87a13.2,13.2,0,0,0,1-3.27,5.3,5.3,0,0,1,1-2.46,2.34,2.34,0,0,1,2.26-.1c1,.34,1.3.85,1,1.53a11.5,11.5,0,0,1-.52,2.66,23.1,23.1,0,0,1-1.33,3.59,17.11,17.11,0,0,1-1.85,3.07A2.35,2.35,0,0,1,847.09,53.59Z"/><path class="cls-1" d="M898.43,83.06q-.82,1.44-2.77,4.71c-1.31,2.19-2.77,4.57-4.42,7.17s-3.39,5.32-5.23,8.18-3.63,5.46-5.34,7.78a71.5,71.5,0,0,1-4.73,5.83c-1.44,1.57-2.57,2.43-3.39,2.56q-5.53,1-7.18-3.38t-.52-11.25a58.3,58.3,0,0,1,4.83-14.84,70.83,70.83,0,0,1,8.83-14.43,38.57,38.57,0,0,1,11.4-9.93A15.78,15.78,0,0,1,902.74,64a17.46,17.46,0,0,1,2.77,1.23,13.84,13.84,0,0,1,2.88,2A9.37,9.37,0,0,1,910.44,70a4.85,4.85,0,0,1,.52,2.87c-.28,1.64-.79,2.29-1.54,1.94a9,9,0,0,1-2.67-2.14c-1-1.09-2.23-2.26-3.6-3.48a7.35,7.35,0,0,0-4.1-2.05,11,11,0,0,0-6.47,1.13A25,25,0,0,0,887.13,72a42.35,42.35,0,0,0-6.57,7.78,110.12,110.12,0,0,0-6.88,11.36,60.1,60.1,0,0,0-4.82,12q-1.65,5.94-.21,9.62c.69,1.91,1.81,2.46,3.39,1.64a17.91,17.91,0,0,0,5.24-4.91,102.92,102.92,0,0,0,6.16-9q3.28-5.33,6.26-10.54t5.44-9.62q2.48-4.39,3.91-6.45a5.62,5.62,0,0,1,2.15-1.12c1-.34,1.54.17,1.54,1.53a46.22,46.22,0,0,1-.31,7.68q-.51,5-1.12,10.23c-.42,3.48-.86,6.69-1.34,9.62s-.79,4.88-.92,5.84q1.63-1.23,5.44-4.2t8-6q4.2-3.08,8-5.42T926,89.41c1.5-.27,2.39-.07,2.67.61s0,1.57-.82,2.66A3,3,0,0,1,925.74,94a16,16,0,0,0-2.46.72,66.83,66.83,0,0,0-13,8.7q-6.47,5.43-12,10.13-4.51,24.15-10.88,39.91T874.5,178q-6.46,8.81-12.22,11.16c-3.83,1.56-6.84,1.5-9-.21s-3.25-4.88-3.18-9.51,1.81-10.31,5.23-17a169.71,169.71,0,0,1,39-51q1.23-7.16,2.26-14.22T898.43,83.06Zm-5.13,34.8a138.77,138.77,0,0,0-20.64,22.92,165.57,165.57,0,0,0-15.51,26.61,26.76,26.76,0,0,0-2.87,9.82c-.28,3.28.07,5.8,1,7.58a3.91,3.91,0,0,0,4.62,2q3.2-.62,8.12-6.75a86,86,0,0,0,9.13-13.92,139.84,139.84,0,0,0,7.09-15.66q3.07-8.07,5.34-16.37T893.3,117.86Z"/><path class="cls-1" d="M924.1,116q1.85-2.46,5.44-8.19T937.76,95q4.62-7.07,9.85-14.53A154.25,154.25,0,0,1,958,67.2a64.29,64.29,0,0,1,9.55-9.11q4.43-3.27,7.7-1.84a8.55,8.55,0,0,1,4.83,6.24,34.27,34.27,0,0,1,.62,10.85,112.75,112.75,0,0,1-1.95,13.2q-1.44,7-2.67,13a81.2,81.2,0,0,0-1.55,10.54c-.2,3,.24,4.91,1.34,5.73q2.46,1.84,6.47-.82a59.31,59.31,0,0,0,8.42-7,107.63,107.63,0,0,0,8.42-9.21q4-4.91,6.26-7.77,1.44-1.85,2.67-1.74c.82.07,1.16.85,1,2.35q0,.82-2.46,4.09t-6.17,7.37a112.6,112.6,0,0,1-8.11,8.09,48,48,0,0,1-8.62,6.34,14.24,14.24,0,0,1-7.7,2.15c-2.33-.13-4-1.7-4.93-4.71q-.82-2.25-.21-7.16c.41-3.28,1-6.92,1.64-11s1.47-8.19,2.37-12.49a95,95,0,0,0,1.74-11.76,36.34,36.34,0,0,0-.2-8.81c-.41-2.31-1.51-3.61-3.29-3.88a4.65,4.65,0,0,0-3.7,1.53,35.27,35.27,0,0,0-2.87,3A210.13,210.13,0,0,0,948.74,86q-8,11.16-15.61,23.44c-.13.27-1,1.63-2.46,4.09a70.1,70.1,0,0,1-5,7.16,19.82,19.82,0,0,1-5,4.81q-2.26,1.34-2.26-3a45,45,0,0,1,1.23-6.25q1.23-5.22,3.08-12.48t4-15.35q2.15-8.08,4.1-14.94t3.29-11.36a37.29,37.29,0,0,1,1.54-4.71c2.19-1.77,3.42-2,3.7-.82a12,12,0,0,1-.52,5.32q-.91,3.48-2.15,7c-.83,2.32-1.31,3.62-1.44,3.89q-3.29,10.65-6,21.39T924.1,116Z"/><path class="cls-1" d="M1009.73,97.39a57.36,57.36,0,0,0,.52,10.13,24.75,24.75,0,0,0,2.87,9,13.17,13.17,0,0,0,5.75,5.52c2.4,1.17,5.44,1.06,9.14-.3a28.83,28.83,0,0,0,10.06-6,55.82,55.82,0,0,0,7.6-8.6,78.11,78.11,0,0,0,5.65-9.1q2.36-4.5,4.21-8c.68-1.23,1.37-1.7,2-1.43s1,1.3.83,3.07q-.42,4.92-4.32,11.26a59.46,59.46,0,0,1-9.55,11.77,53.38,53.38,0,0,1-12.32,8.9q-6.67,3.48-12.42,2.66t-9.76-7.06q-4-6.24-4.41-20.16c-.69.41-1.24.38-1.65-.1a2.59,2.59,0,0,1-.61-1.74,3.48,3.48,0,0,1,.61-2,2.3,2.3,0,0,1,2.06-.92,27.49,27.49,0,0,1,2-9.52,62.53,62.53,0,0,1,5-10.33,64.52,64.52,0,0,1,7-9.52,39.57,39.57,0,0,1,8-7.06,16.45,16.45,0,0,1,8-2.87,8.94,8.94,0,0,1,7,2.87,7.62,7.62,0,0,1,2.16,4.91,11.09,11.09,0,0,1-1,5.12,23.61,23.61,0,0,1-3,4.81q-1.85,2.35-3.28,4a70.65,70.65,0,0,1-12.94,12.18A72.27,72.27,0,0,1,1009.73,97.39Zm.62-4.71a63.72,63.72,0,0,0,14.17-8.9,95.15,95.15,0,0,0,12.12-12q4.3-5.32,4.62-8.39c.2-2.05-.48-3.28-2.06-3.69s-3.76,0-6.57,1.23a30.16,30.16,0,0,0-8.52,5.94,50.25,50.25,0,0,0-8.22,10.54A45.1,45.1,0,0,0,1010.35,92.68Z"/><path class="cls-1" d="M1055.12,115c.55-1.36,1.33-3.54,2.36-6.55s2.26-6.27,3.7-9.82,3.08-7.16,4.93-10.85a66.18,66.18,0,0,1,6-9.82,25.24,25.24,0,0,1,6.78-6.55,8.67,8.67,0,0,1,7.5-1q2.65.82,4.82,4.51a84.55,84.55,0,0,1,4,7.77c1.23,2.74,2.39,5.29,3.49,7.68s2.26,3.86,3.49,4.4a5.34,5.34,0,0,0,3.7.31,14.79,14.79,0,0,0,3.59-1.54,21.56,21.56,0,0,0,3.28-2.35,11.65,11.65,0,0,1,3-2,1.76,1.76,0,0,1,2.57.72c.62,1,.31,1.88-.92,2.56s-2.92,1.5-4.63,2.46a27.42,27.42,0,0,1-5.23,2.25,12,12,0,0,1-5.34.41,8.19,8.19,0,0,1-4.93-3.07A22.46,22.46,0,0,1,1094,89.2c-.9-2-1.75-4.09-2.57-6.14a39.72,39.72,0,0,0-2.77-5.62,8.74,8.74,0,0,0-3.8-3.59c-2.06-.81-4.11-.41-6.16,1.23a27.65,27.65,0,0,0-6,7.06,80.45,80.45,0,0,0-5.54,10.75q-2.67,6.14-4.83,12.18t-3.9,11.25q-1.76,5.22-2.77,7.88c-.14.41-.35,1-.62,1.64a1.44,1.44,0,0,1-1.44,1q-3.29.83-3.28-3.27a69.54,69.54,0,0,1,.71-7.68q.73-5.41,1.75-12.28t2.36-14.32q1.33-7.47,2.57-13.82t2.26-10.64c.68-2.87,1.23-4.5,1.64-4.91q3.07-2.46,4.11,2a19.5,19.5,0,0,1-.52,2.15l-1.12,4.3c-.42,1.57-.83,3.07-1.24,4.5s-.68,2.36-.82,2.77q-1,4.1-1.95,9.1t-1.85,10.34c-.61,3.55-1.2,7-1.74,10.44S1055.53,112.13,1055.12,115Z"/><path class="cls-2" d="M711.44,342.73q3.28-1.23,4.32-.71a.92.92,0,0,1,.51,1.43,8,8,0,0,1-1.85,2,5.15,5.15,0,0,1-3.08,1.23,4.32,4.32,0,0,1-3.18-1.12q-1.44-1.23-1.85-4.91a50.13,50.13,0,0,1-.11-12.59q.72-7.68,2.26-16.48t3.6-18.42q2.06-9.61,4.41-18.62t4.42-16.69q2.05-7.66,3.7-13,1.85-6.56,3.38-12.08t3.19-10.95q1.64-5.42,3.39-10.85t3.59-12c.27-.68.75-2.08,1.44-4.19a64.75,64.75,0,0,0,1.74-6.66,49.82,49.82,0,0,0,.93-6.24c.13-1.84-.28-2.9-1.24-3.17s-2.63-.17-5.44.71-6.09,2.12-9.86,3.69-7.8,3.38-12.11,5.42-8.42,4.1-12.32,6.14-7.4,3.93-10.48,5.63-5.3,3-6.67,4q-6,4.09-12,8.91a24.47,24.47,0,0,0-8.31,11.56,18,18,0,0,0-.72,7.78,21.67,21.67,0,0,0,2.26,7.06,26.47,26.47,0,0,0,4.51,6.24,45.24,45.24,0,0,0,5.86,5.12,61,61,0,0,0,5.95,4.09q4.51,2.87,9.25,5.94t8.52,5.83q3.8,2.76,4,4c.28,1.5.17,2.46-.31,2.87s-1.47.27-3-.41c-.14,0-.48-.27-1-.82s-1.17-1.13-1.85-1.74-1.33-1.19-1.95-1.74-1-.89-1.13-1a81.27,81.27,0,0,0-10.47-7.27,109.1,109.1,0,0,1-11-7.37,50.39,50.39,0,0,1-9-8.8A22.67,22.67,0,0,1,659.07,233a18.52,18.52,0,0,1,1.65-10.95,37.08,37.08,0,0,1,6.57-9.32,59.2,59.2,0,0,1,9.34-7.88q5.24-3.57,10-6.65l6.57-3.89q4.51-2.66,10.37-5.73t12.23-6q6.36-3,12.21-5a44.93,44.93,0,0,1,10.27-2.46q4.41-.4,6.27,1.44a8.33,8.33,0,0,1,1.84,6.55,60.33,60.33,0,0,1-2.46,13q-2.26,8.1-5.24,17.09t-5.85,17.61q-2.88,8.59-4.31,14.32-2.26,8-4.73,17.91T719,283.07q-2.26,10.13-4.11,20.06t-3,18a136.83,136.83,0,0,0-1.34,13.92C710.48,339,710.76,341.5,711.44,342.73Z"/><path class="cls-2" d="M768.94,194.75a3.5,3.5,0,0,1,2.37-.41c.88.14,1.33.76,1.33,1.85a13.26,13.26,0,0,1-.92,5.32,69.3,69.3,0,0,1-2.67,6.55,49,49,0,0,1-3.29,5.93,11.32,11.32,0,0,1-2.77,3.28q-1.65,1-2.16,0a2.74,2.74,0,0,1,.52-2.66,63.31,63.31,0,0,0,3.49-6.76,26.24,26.24,0,0,0,2.26-7.78c.13-1.09.27-2.11.41-3.07A3.12,3.12,0,0,1,768.94,194.75Z"/><path class="cls-2" d="M811.86,291.77a62.45,62.45,0,0,0,4.83-7.17q3.39-5.52,7.6-12.48t9-13.92a82.44,82.44,0,0,1,9.34-11.46q4.51-4.5,8.42-5.42t6.16,4.4a16.88,16.88,0,0,1,.82,5.73q0,3.48-.41,7.67c-.27,2.8-.69,5.7-1.23,8.7s-1,5.8-1.44,8.39q-1.23,8.6.31,11.77a4.32,4.32,0,0,0,4.93,2.66c2.26-.34,4.89-1.64,7.91-3.89a64.81,64.81,0,0,0,8.83-8.08,96.3,96.3,0,0,0,6.46-7.57c2-2.59,3.73-4.92,5.24-7,.82-1.23,1.64-1.74,2.47-1.54s1,1,.61,2.36a26.1,26.1,0,0,1-3.28,5.62,76.7,76.7,0,0,1-6.47,7.88,83.78,83.78,0,0,1-8.42,7.88,42.07,42.07,0,0,1-8.83,5.74,14.42,14.42,0,0,1-7.7,1.53q-3.49-.41-5.14-4.91a16.1,16.1,0,0,1-.92-6.55c.06-2.73.27-5.63.61-8.7s.75-6.24,1.24-9.52.85-6.27,1.12-9c.42-5.19-.2-8.32-1.84-9.42s-4.66.89-9,5.94a74.76,74.76,0,0,0-8.21,10.95q-3.92,6.24-7.6,12.58t-7.19,11.77a52.13,52.13,0,0,1-6.78,8.7c-1.51,1.51-2.77,1.71-3.8.62a7.67,7.67,0,0,1-1.74-4.92,45,45,0,0,1,1.13-12.89q1.53-7,3.59-14.23l4.11-14.53a121,121,0,0,0,3.08-13.81c.68-5.19.41-7.81-.82-7.88s-3.7,1.74-7.4,5.42a101.74,101.74,0,0,0-11.6,15q-6.06,9.33-11.81,19t-11,18.32q-5.25,8.6-9.14,12.48-2.05,2.06-3.39,1.95a2.5,2.5,0,0,1-2.06-1.74,12.83,12.83,0,0,1-.82-4.51,43.39,43.39,0,0,1,.31-6.34q1-9.83,3-19.34t4.62-18.93l3.9-12.9a2.46,2.46,0,0,1,2.47-1.43c1,.14,1.43,1,1.43,2.45a31.73,31.73,0,0,1-1.54,8q-1.53,5.33-3.49,11.77c-1.3,4.29-2.57,8.8-3.8,13.5A86.1,86.1,0,0,0,766.07,284c-.69,5.32-.65,8.36.1,9.11s2.57-1.33,5.44-6.24q3.28-5.53,7.81-13.31T789,257.69q5-8.08,10.37-15.45A114.84,114.84,0,0,1,809.4,230q4.73-4.92,8.52-6.14t6.06,2.86c.69,1.37.82,3.69.41,7a89.46,89.46,0,0,1-2.26,11.26c-1.09,4.23-2.33,8.73-3.69,13.51s-2.64,9.38-3.8,13.81-2.06,8.39-2.67,11.87S811.32,290.13,811.86,291.77Z"/><path class="cls-2" d="M948.84,288.49c.55-1.36,1.33-3.54,2.36-6.55s2.26-6.27,3.7-9.82,3.08-7.16,4.93-10.85a67,67,0,0,1,5.95-9.82,25.24,25.24,0,0,1,6.78-6.55,8.67,8.67,0,0,1,7.5-1q2.66.82,4.82,4.51a84.55,84.55,0,0,1,4,7.77c1.23,2.74,2.39,5.29,3.49,7.68s2.26,3.86,3.49,4.4a5.34,5.34,0,0,0,3.7.31,14.79,14.79,0,0,0,3.59-1.54,21.56,21.56,0,0,0,3.28-2.35,11.65,11.65,0,0,1,3-1.95,1.76,1.76,0,0,1,2.57.72c.62,1,.31,1.88-.92,2.56s-2.91,1.5-4.63,2.46a27.42,27.42,0,0,1-5.23,2.25,12,12,0,0,1-5.34.41,8.19,8.19,0,0,1-4.93-3.07,22.46,22.46,0,0,1-3.18-5.33c-.9-2-1.75-4.09-2.57-6.14a39.72,39.72,0,0,0-2.77-5.62,8.74,8.74,0,0,0-3.8-3.59c-2.06-.81-4.11-.41-6.16,1.23a27.65,27.65,0,0,0-6,7.06A80.45,80.45,0,0,0,961,266.39q-2.67,6.14-4.83,12.18t-3.9,11.25q-1.76,5.22-2.77,7.88c-.14.41-.34,1-.62,1.64a1.44,1.44,0,0,1-1.44,1q-3.28.83-3.28-3.27a67.77,67.77,0,0,1,.72-7.68q.72-5.42,1.74-12.28t2.36-14.32q1.34-7.47,2.57-13.82t2.26-10.64c.68-2.87,1.23-4.5,1.64-4.91q3.08-2.46,4.11,2a20.79,20.79,0,0,1-.51,2.15c-.35,1.3-.72,2.73-1.13,4.3s-.83,3.07-1.24,4.5-.68,2.36-.82,2.77q-1,4.1-2,9.1T952,268.64c-.61,3.55-1.2,7-1.74,10.44S949.25,285.63,948.84,288.49Z"/><path class="cls-2" d="M1013.12,270.89a56.39,56.39,0,0,0,.51,10.13,25,25,0,0,0,2.88,9,13.06,13.06,0,0,0,5.75,5.52c2.39,1.17,5.44,1.06,9.14-.3a28.83,28.83,0,0,0,10.06-6,55.82,55.82,0,0,0,7.6-8.6,79.49,79.49,0,0,0,5.65-9.1q2.36-4.5,4.21-8c.68-1.23,1.36-1.7,2-1.43s1,1.3.82,3.07q-.42,4.92-4.31,11.26a59.82,59.82,0,0,1-9.55,11.77,53.81,53.81,0,0,1-12.32,8.9q-6.67,3.48-12.43,2.66t-9.75-7.06q-4-6.24-4.42-20.16c-.68.41-1.23.38-1.64-.1a2.59,2.59,0,0,1-.62-1.74,3.49,3.49,0,0,1,.62-1.95,2.3,2.3,0,0,1,2-.92,27.49,27.49,0,0,1,2-9.52,61.81,61.81,0,0,1,5-10.33,63.81,63.81,0,0,1,7-9.52,39.57,39.57,0,0,1,8-7.06,16.38,16.38,0,0,1,8-2.87,8.94,8.94,0,0,1,7,2.87,7.61,7.61,0,0,1,2.15,4.91,11.08,11.08,0,0,1-1,5.12,24.52,24.52,0,0,1-3,4.81q-1.85,2.36-3.29,4a70.28,70.28,0,0,1-12.93,12.18A72.52,72.52,0,0,1,1013.12,270.89Zm.62-4.71a64,64,0,0,0,14.17-8.9,94.43,94.43,0,0,0,12.11-12q4.32-5.33,4.62-8.39c.21-2-.48-3.28-2.05-3.69s-3.77,0-6.57,1.23a30.16,30.16,0,0,0-8.52,5.94,50.25,50.25,0,0,0-8.22,10.54A45.1,45.1,0,0,0,1013.74,266.18Z"/><path class="cls-2" d="M1093.83,242.85c.13-.27.58-1.23,1.33-2.86a28.46,28.46,0,0,1,2.57-4.51c1-1.36,1.81-2.11,2.57-2.25s1.13,1.1,1.13,3.69a31.76,31.76,0,0,1-1.24,5.52q-1.23,4.5-2.87,10.64t-3.08,13.1a76.74,76.74,0,0,0-1.64,13,31.79,31.79,0,0,0,1,10.13q1.23,4.1,5.14,4.5,4.52.62,9.44-3.07a58.64,58.64,0,0,0,9.35-8.8,91.25,91.25,0,0,0,7.7-10.23q3.29-5.11,4.72-7.57c.82-1.5,1.54-2,2.16-1.54s.72,1.33.31,2.56a38.57,38.57,0,0,1-3.91,7.68,84.23,84.23,0,0,1-6.87,9.41,86.77,86.77,0,0,1-8.53,8.9,34,34,0,0,1-8.83,6,11.84,11.84,0,0,1-7.9,1q-3.6-.93-5.45-6.25a27.67,27.67,0,0,1-1.85-8.08,67.85,67.85,0,0,1-.2-9.11q.19-4.5.72-8.49t.92-6.25l-7.6,14.74c-1.37,2.59-2.74,5.12-4.1,7.57a58.72,58.72,0,0,1-4.73,7.17q-6.57,8.6-10.68,9.1c-2.74.35-4.75-.95-6-3.88s-1.85-7-1.65-12.28a77.75,77.75,0,0,1,2.47-16.28,73,73,0,0,1,6.06-15.86q3.88-7.47,9.24-11.15a17.11,17.11,0,0,1,5.23-2.15,16,16,0,0,1,6-.31,13.72,13.72,0,0,1,5.44,1.95A9.58,9.58,0,0,1,1093.83,242.85Zm-1.85,4.3a5.62,5.62,0,0,1-1.75-2.15,8.13,8.13,0,0,0-.82-1.74,4.85,4.85,0,0,0-1.85-1.53,14.27,14.27,0,0,0-4.62-1.13q-4.73-.61-8.93,3.79a44,44,0,0,0-7.5,11.05,73.35,73.35,0,0,0-5.23,14.22,63.44,63.44,0,0,0-2.16,13.51c-.13,4,.34,6.86,1.44,8.7s3.08,1.81,6-.1q2.67-1.84,6.47-7.78t7.5-13q3.69-7,6.78-13.71T1092,247.15Z"/><path class="cls-2" d="M1163.86,242.24a46.93,46.93,0,0,0,8.52-14.84,139.6,139.6,0,0,0,5.13-17.4q2-8.7,3.08-16a71.07,71.07,0,0,1,2.16-10.34c.68-1.91,1.44-3.1,2.26-3.58a2.48,2.48,0,0,1,2.36-.21,3.22,3.22,0,0,1,1.64,1.74,3.34,3.34,0,0,1,.31,2q-1.44,4.1-4.62,14.43t-6.78,23.43q-3.59,13.11-7,27.64t-5.44,27.11a128.41,128.41,0,0,0-2,21.7q.1,9.11,3.39,11.56a5.24,5.24,0,0,0,6.36.21,25.07,25.07,0,0,0,6.57-6.45,69,69,0,0,0,6.27-10.33q3-5.94,5.44-11.77t4.21-10.65c1.16-3.2,2-5.49,2.57-6.85a2,2,0,0,1,2.26-1.44q1.64.21,1.23,2.67-1.44,4.71-4.42,12.79a154.81,154.81,0,0,1-7,16.06,72.57,72.57,0,0,1-8.93,13.92q-4.93,5.94-10.48,6.55-6,.62-8.52-4.09t-2.87-12.28a92.75,92.75,0,0,1,1-16.89q1.33-9.3,3.29-18.11t3.8-15.76q1.85-7,2.46-9.83a387.77,387.77,0,0,1-17.66,38.28,89.48,89.48,0,0,1-4.82,7.78,26.39,26.39,0,0,1-6.27,6.34q-6,4.09-9,1.43t-3.79-9a50.74,50.74,0,0,1,.82-14.74,63,63,0,0,1,5-15.76,36.51,36.51,0,0,1,8.73-12A13.36,13.36,0,0,1,1155,236.3,12.08,12.08,0,0,1,1163.86,242.24Zm-2.26,5.52a6.26,6.26,0,0,0-1.65-4.3,11.53,11.53,0,0,0-3.9-2.86,8.69,8.69,0,0,0-7.7.31,19.29,19.29,0,0,0-6.47,6,45.71,45.71,0,0,0-5,9.62,75.35,75.35,0,0,0-3.39,11.06,59.47,59.47,0,0,0-1.44,10.23,18.81,18.81,0,0,0,.83,7.37c1,2.73,2.29,3.78,4,3.17s3.56-2.15,5.55-4.6a70,70,0,0,0,6.16-9.32q3.18-5.62,5.85-11.15c1.78-3.69,3.32-7,4.62-9.93S1161.19,248.58,1161.6,247.76Z"/><path class="cls-2" d="M1232.24,287.47q3.49-11.46,6.57-21.29t4.73-15.55a188.26,188.26,0,0,1-16.12,20.67q-7.71,8.4-12.63,11.26-5.55,3.27-9,2.56a8.16,8.16,0,0,1-5.44-3.79,18.47,18.47,0,0,1-2.47-8,50.42,50.42,0,0,1,0-10.13,59.69,59.69,0,0,1,1.85-10,31.87,31.87,0,0,1,3.18-7.88c.83-1.37,1.78-1.91,2.88-1.64a3.27,3.27,0,0,1,1.23.82q.62.62,0,2.25-1.23,3.07-2.36,6.55t-1.95,7.16a41.17,41.17,0,0,0-1.13,12.69q.51,5.33,3,7.27c1.64,1.3,3.93,1.36,6.88.2s6.47-3.92,10.57-8.29c2.19-2.31,4.45-5,6.78-8s4.52-6,6.57-8.9,3.94-5.73,5.65-8.39,3.11-4.88,4.21-6.65a3.1,3.1,0,0,1,3.29-1.74c1.36.2,1.77,1.4,1.23,3.58s-1.34,5.25-2.36,8.8-2.13,7.33-3.29,11.36l-3.39,11.77q-1.65,5.73-2.87,9.62,6.57-5.12,11.81-9.11a83.15,83.15,0,0,0,11-10.34,3,3,0,0,1,1.85-1.43,1.61,1.61,0,0,1,1.54.31,2,2,0,0,1,.41,1.63,4.34,4.34,0,0,1-1.13,2.36,37.55,37.55,0,0,1-5.75,5.73q-3.9,3.27-8.11,6.65t-8,6.24q-3.8,2.87-5.65,4.1-1.63,4.9-3.28,11.15t-3.8,12.9a126.79,126.79,0,0,1-5,13,59.4,59.4,0,0,1-6.68,11.36,34.13,34.13,0,0,1-8.73,8.19,21.8,21.8,0,0,1-11.29,3.38,41.13,41.13,0,0,1-8.73-1.34,47.6,47.6,0,0,1-10.68-3.88,22.09,22.09,0,0,1-7.8-6.25q-2.78-3.68.1-8.18c.69-1.09,2.46-2.73,5.34-4.92s6.33-4.67,10.37-7.47,8.42-5.73,13.15-8.8,9.27-6,13.65-8.8,8.35-5.32,11.91-7.57S1230.46,288.7,1232.24,287.47Zm-1.85,6.14q-1.85,1.23-6.88,4.4t-11.39,7.27q-6.37,4.1-13.25,8.59t-12.73,8.6q-5.85,4.09-9.65,7.16c-2.54,2.05-3.87,3.48-4,4.3q-.62,3.27,3.29,5.63a35.89,35.89,0,0,0,9.24,3.79,59.32,59.32,0,0,0,10.57,1.84,21.41,21.41,0,0,0,7.71-.41q5.74-1.84,10.06-8.19a77.36,77.36,0,0,0,7.5-14.12,149,149,0,0,0,5.44-15.76Q1228.54,298.73,1230.39,293.61Z"/></g></g></svg>