<svg xmlns="http://www.w3.org/2000/svg" viewBox="0 0 1107.63 510.29"><defs><style>.cls-1{fill:#232323;}.cls-2{fill:#71c15e;}</style></defs><g id="Layer_2" data-name="Layer 2"><g id="Layer_2-2" data-name="Layer 2"><path class="cls-1" d="M628.9,297.75h-1.74l-9.6-28.88h1.85l8.64,26.32,7.89-26.32h1.78l7.9,26.32,8.63-26.32h1.86l-9.6,28.88h-1.74l-7.94-26.33Z"/><path class="cls-1" d="M659.44,288a11,11,0,0,0,.79,3.53,9.19,9.19,0,0,0,1.81,2.8,8,8,0,0,0,2.65,1.86,8.26,8.26,0,0,0,3.38.68,8.52,8.52,0,0,0,4.47-1.18,9.88,9.88,0,0,0,3.24-3.16l1.2.89a12.22,12.22,0,0,1-3.76,3.58,9.61,9.61,0,0,1-5.15,1.38,10.53,10.53,0,0,1-4.2-.83,9.94,9.94,0,0,1-3.31-2.33,10.78,10.78,0,0,1-2.18-3.52,12.17,12.17,0,0,1-.8-4.47,11.74,11.74,0,0,1,.82-4.47,11.31,11.31,0,0,1,2.18-3.52,9.89,9.89,0,0,1,3.22-2.33,9.37,9.37,0,0,1,3.89-.83,9.53,9.53,0,0,1,4,.83,9.73,9.73,0,0,1,3.18,2.29,10.9,10.9,0,0,1,2.11,3.4,11.57,11.57,0,0,1,.77,4.24V288ZM676,286.44a12,12,0,0,0-.75-3.6,8.82,8.82,0,0,0-1.73-2.8,7.64,7.64,0,0,0-2.55-1.84,7.87,7.87,0,0,0-3.25-.66,7.25,7.25,0,0,0-3,.64,7.85,7.85,0,0,0-2.56,1.82,10,10,0,0,0-1.86,2.82,11.4,11.4,0,0,0-.92,3.62Z"/><path class="cls-1" d="M684.29,268.09v12.78a10.53,10.53,0,0,1,3.7-3.54,10.39,10.39,0,0,1,5.28-1.3,10.67,10.67,0,0,1,4.2.83,10.06,10.06,0,0,1,3.39,2.33,11,11,0,0,1,2.27,3.52,12.45,12.45,0,0,1,0,8.94,11,11,0,0,1-2.27,3.52,10.06,10.06,0,0,1-3.39,2.33,10.67,10.67,0,0,1-4.2.83,11,11,0,0,1-2.42-.29,9.43,9.43,0,0,1-2.43-1,11,11,0,0,1-2.25-1.68,10.23,10.23,0,0,1-1.88-2.54v4.88h-1.74V268.09Zm0,19.09a10.44,10.44,0,0,0,.7,3.87,9,9,0,0,0,1.92,3.06,8.84,8.84,0,0,0,2.84,2,8.79,8.79,0,0,0,7,0,8.84,8.84,0,0,0,2.84-2,9,9,0,0,0,1.92-3.06,11,11,0,0,0,0-7.74,9,9,0,0,0-1.92-3.06,8.69,8.69,0,0,0-2.84-2,8.55,8.55,0,0,0-3.49-.72,9,9,0,0,0-3.48.68,8.62,8.62,0,0,0-2.84,1.91,8.77,8.77,0,0,0-1.92,3A10.88,10.88,0,0,0,684.33,287.18Z"/><path class="cls-1" d="M729.43,268.87a17.67,17.67,0,0,1,6.35,1.1,14.62,14.62,0,0,1,4.89,3,13.2,13.2,0,0,1,3.14,4.57,15.34,15.34,0,0,1,0,11.46,13.29,13.29,0,0,1-3.14,4.57,14.44,14.44,0,0,1-4.89,3,17.46,17.46,0,0,1-6.35,1.11H722V268.87Zm-5.61,1.55V296.2h5.61a15.88,15.88,0,0,0,5.59-.95,12.5,12.5,0,0,0,4.34-2.67,12.05,12.05,0,0,0,2.79-4.08,14.23,14.23,0,0,0,0-10.38,11.78,11.78,0,0,0-2.79-4.06,13,13,0,0,0-4.34-2.68,15.66,15.66,0,0,0-5.59-1Z"/><path class="cls-1" d="M750.18,288a11,11,0,0,0,.79,3.53,9,9,0,0,0,1.8,2.8,8.14,8.14,0,0,0,6,2.54,8.52,8.52,0,0,0,4.47-1.18,9.85,9.85,0,0,0,3.23-3.16l1.21.89A12.22,12.22,0,0,1,764,297a9.63,9.63,0,0,1-5.15,1.38,10.53,10.53,0,0,1-4.2-.83,9.84,9.84,0,0,1-3.31-2.33,10.8,10.8,0,0,1-2.19-3.52,12.17,12.17,0,0,1-.79-4.47,11.93,11.93,0,0,1,.81-4.47,11.52,11.52,0,0,1,2.19-3.52,10,10,0,0,1,3.21-2.33,9.44,9.44,0,0,1,3.89-.83,9.57,9.57,0,0,1,4,.83,9.73,9.73,0,0,1,3.18,2.29,10.9,10.9,0,0,1,2.11,3.4,11.57,11.57,0,0,1,.77,4.24V288Zm16.53-1.51a11.7,11.7,0,0,0-.76-3.6,8.8,8.8,0,0,0-1.72-2.8,7.64,7.64,0,0,0-2.55-1.84,7.88,7.88,0,0,0-3.26-.66,7.23,7.23,0,0,0-3,.64,7.85,7.85,0,0,0-2.56,1.82,10,10,0,0,0-1.86,2.82,11.68,11.68,0,0,0-.93,3.62Z"/><path class="cls-1" d="M782.77,279.32a6.63,6.63,0,0,0-2-1.35,6.53,6.53,0,0,0-2.51-.47,4.79,4.79,0,0,0-3.53,1.18,3.84,3.84,0,0,0-1.16,2.77,3.39,3.39,0,0,0,.78,2.25,6.94,6.94,0,0,0,2.59,1.7l3,1.24q5.42,2.06,5.42,5.92a5.13,5.13,0,0,1-1.9,4.14,7.81,7.81,0,0,1-5.19,1.59,8.21,8.21,0,0,1-2.38-.35,10.12,10.12,0,0,1-2.13-.91,9.1,9.1,0,0,1-1.74-1.28,7.58,7.58,0,0,1-1.22-1.45l1.13-1a6.23,6.23,0,0,0,1.18,1.41,8.8,8.8,0,0,0,1.54,1.1,8.6,8.6,0,0,0,1.77.74,7.43,7.43,0,0,0,5.88-.83,3.77,3.77,0,0,0,1.43-3.16,3.64,3.64,0,0,0-1-2.48,8,8,0,0,0-3-1.93l-3.06-1.24a9.91,9.91,0,0,1-3.7-2.34,4.52,4.52,0,0,1-1.14-3.08,4.81,4.81,0,0,1,.46-2.07,5.37,5.37,0,0,1,1.3-1.74,6,6,0,0,1,2-1.2,7.31,7.31,0,0,1,2.62-.45,7.83,7.83,0,0,1,3.13.6,7.24,7.24,0,0,1,2.4,1.65Z"/><path class="cls-1" d="M789.9,268.79h2.78v2.79H789.9Zm2.28,29h-1.74V276.61h1.74Z"/><path class="cls-1" d="M818.74,276.61v19.67a11.43,11.43,0,0,1-.74,4.25,8.41,8.41,0,0,1-2.11,3.14,9.17,9.17,0,0,1-3.29,1.94,13.35,13.35,0,0,1-4.28.65,10.79,10.79,0,0,1-2.59-.31,11,11,0,0,1-2.44-.89,10.48,10.48,0,0,1-2.11-1.37,9.71,9.71,0,0,1-1.64-1.76l1.2-1a6.43,6.43,0,0,0,1.37,1.59,9.17,9.17,0,0,0,1.84,1.18,10.74,10.74,0,0,0,2.13.75,9.53,9.53,0,0,0,2.24.27,11.34,11.34,0,0,0,3.54-.52,7,7,0,0,0,4.52-4.24,10.23,10.23,0,0,0,.61-3.71V292.6a10.6,10.6,0,0,1-2,2.4,11.09,11.09,0,0,1-2.28,1.55,10.52,10.52,0,0,1-2.4.83,11.31,11.31,0,0,1-2.31.25,10.92,10.92,0,0,1-4.16-.79,10.34,10.34,0,0,1-3.41-2.23,10.58,10.58,0,0,1-2.28-3.4,11.89,11.89,0,0,1,0-8.73,10.18,10.18,0,0,1,5.69-5.66A11.12,11.12,0,0,1,808,276a10.54,10.54,0,0,1,5.27,1.34,10.16,10.16,0,0,1,3.71,3.5v-4.26ZM817,286.83a10.12,10.12,0,0,0-.72-3.93,8.4,8.4,0,0,0-2-2.9,8.56,8.56,0,0,0-2.86-1.82,9.14,9.14,0,0,0-3.41-.64,8.73,8.73,0,0,0-3.42.68,9.09,9.09,0,0,0-2.85,1.89,8.88,8.88,0,0,0-2,2.95,10.26,10.26,0,0,0,0,7.55,8.94,8.94,0,0,0,2,2.94,9.09,9.09,0,0,0,2.85,1.89,8.92,8.92,0,0,0,6.83,0,8.79,8.79,0,0,0,4.82-4.83A9.72,9.72,0,0,0,817,286.83Z"/><path class="cls-1" d="M826.59,276.61v4.84a14.72,14.72,0,0,1,1.4-2,9.56,9.56,0,0,1,1.89-1.75,10.17,10.17,0,0,1,2.42-1.22,9.14,9.14,0,0,1,2.93-.46,9,9,0,0,1,4.51,1.06,7.32,7.32,0,0,1,2.84,3,7.43,7.43,0,0,1,.74,2.4,21.33,21.33,0,0,1,.19,3v12.27h-1.74V285.48a13.39,13.39,0,0,0-.21-2.37,10,10,0,0,0-.56-2,5.89,5.89,0,0,0-2.25-2.71,6.43,6.43,0,0,0-3.52-1,7.18,7.18,0,0,0-2.73.53,7.94,7.94,0,0,0-2.34,1.41,9.4,9.4,0,0,0-1.8,2,9.1,9.1,0,0,0-1.15,2.42,16.84,16.84,0,0,0-.42,2.07,20.73,20.73,0,0,0-.2,3v8.79h-1.74V276.61Z"/><path class="cls-1" d="M849.78,288a10.71,10.71,0,0,0,.8,3.53,9,9,0,0,0,1.8,2.8,8,8,0,0,0,2.65,1.86,8.31,8.31,0,0,0,3.39.68,8.57,8.57,0,0,0,4.47-1.18,9.94,9.94,0,0,0,3.23-3.16l1.2.89a12.22,12.22,0,0,1-3.76,3.58,9.6,9.6,0,0,1-5.14,1.38,10.54,10.54,0,0,1-4.21-.83,9.8,9.8,0,0,1-3.3-2.33,10.8,10.8,0,0,1-2.19-3.52,12.17,12.17,0,0,1-.8-4.47,11.74,11.74,0,0,1,.82-4.47,11.31,11.31,0,0,1,2.18-3.52,9.89,9.89,0,0,1,3.22-2.33A9.37,9.37,0,0,1,858,276a9.61,9.61,0,0,1,4,.83,9.8,9.8,0,0,1,3.17,2.29,10.9,10.9,0,0,1,2.11,3.4,11.37,11.37,0,0,1,.77,4.24V288Zm16.53-1.51a12,12,0,0,0-.75-3.6,8.82,8.82,0,0,0-1.73-2.8,7.64,7.64,0,0,0-2.55-1.84,7.87,7.87,0,0,0-3.25-.66,7.25,7.25,0,0,0-3,.64,7.85,7.85,0,0,0-2.56,1.82,10,10,0,0,0-1.86,2.82,11.4,11.4,0,0,0-.92,3.62Z"/><path class="cls-1" d="M883.62,277.46a8.35,8.35,0,0,0-3,.51,8.92,8.92,0,0,0-2.44,1.35,9,9,0,0,0-3,4.38,16.13,16.13,0,0,0-.42,2.14,22.41,22.41,0,0,0-.2,3.12v8.79h-1.74V276.61h1.74v4.84a10.43,10.43,0,0,1,1.38-2,10,10,0,0,1,1.93-1.73,10.16,10.16,0,0,1,2.52-1.22,10.34,10.34,0,0,1,3.16-.46Z"/><path class="cls-1" d="M919.69,297.79l-3.17-3.57a13.74,13.74,0,0,1-4.38,3.26,12.83,12.83,0,0,1-5.49,1.16,10.66,10.66,0,0,1-3.45-.54,8.51,8.51,0,0,1-2.78-1.57,7,7,0,0,1-1.88-2.54,8.16,8.16,0,0,1-.68-3.44,5.91,5.91,0,0,1,.66-2.73,10,10,0,0,1,1.74-2.42,14.28,14.28,0,0,1,2.42-2,18.62,18.62,0,0,1,2.69-1.51c-.49-.52-1-1.08-1.51-1.67a14.51,14.51,0,0,1-1.39-1.86,11.44,11.44,0,0,1-1-2,5.22,5.22,0,0,1-.41-2,6.06,6.06,0,0,1,2.06-4.52,7.39,7.39,0,0,1,2.28-1.36,8.32,8.32,0,0,1,5.57,0,6.86,6.86,0,0,1,2.21,1.28,5.91,5.91,0,0,1,1.47,1.95,5.82,5.82,0,0,1,.54,2.5,6.13,6.13,0,0,1-.5,2.56,7.78,7.78,0,0,1-1.41,2.09,12.53,12.53,0,0,1-2.19,1.8c-.85.55-1.81,1.1-2.86,1.64l8.16,9.41a9.5,9.5,0,0,0,1-1.7,15.26,15.26,0,0,0,.76-2,20.66,20.66,0,0,0,.5-2.13,20,20,0,0,0,.27-2.13h1.66a23.14,23.14,0,0,1-.92,4.84,15.05,15.05,0,0,1-2.09,4.38l4.25,4.84Zm-20.05-7.17a6.06,6.06,0,0,0,2.15,4.79,6.83,6.83,0,0,0,2.28,1.25,8.42,8.42,0,0,0,2.69.43,10.35,10.35,0,0,0,4.73-1.1,13,13,0,0,0,3.87-3.08l-8.6-9.91a16.72,16.72,0,0,0-5.22,3.39A5.88,5.88,0,0,0,899.64,290.62Zm3.18-16.18a4.55,4.55,0,0,0,.34,1.69,10.53,10.53,0,0,0,.93,1.74,15.73,15.73,0,0,0,1.34,1.72c.5.57,1,1.11,1.57,1.63a23.65,23.65,0,0,0,2.51-1.34,11.78,11.78,0,0,0,2-1.55,6.33,6.33,0,0,0,1.36-1.82,5,5,0,0,0,.48-2.22,4.49,4.49,0,0,0-.4-1.92,4.44,4.44,0,0,0-1.11-1.49,5.23,5.23,0,0,0-1.66-1,6.19,6.19,0,0,0-2.09-.34,6,6,0,0,0-2.13.36,5,5,0,0,0-1.66,1,4.6,4.6,0,0,0-1.51,3.5Z"/><path class="cls-1" d="M940.79,287.41v10.34H939V268.87h10.53a11.91,11.91,0,0,1,4.26.73,10,10,0,0,1,3.29,2,9.18,9.18,0,0,1,2.11,2.94,8.92,8.92,0,0,1,0,7.16,9.38,9.38,0,0,1-2.11,3,9.91,9.91,0,0,1-3.29,2,11.91,11.91,0,0,1-4.26.73Zm8.75-1.55a9.51,9.51,0,0,0,3.5-.62,8.29,8.29,0,0,0,2.73-1.66,7.55,7.55,0,0,0,1.76-2.46,7.12,7.12,0,0,0,.64-3,7,7,0,0,0-.64-3,7.58,7.58,0,0,0-1.76-2.44A8.29,8.29,0,0,0,953,271a9.51,9.51,0,0,0-3.5-.62h-8.75v15.44Z"/><path class="cls-1" d="M981.2,297.75v-4.84a13,13,0,0,1-1.41,2,9.83,9.83,0,0,1-1.9,1.74,9.44,9.44,0,0,1-2.39,1.22,9.77,9.77,0,0,1-7.44-.6,7.3,7.3,0,0,1-2.84-3,7.19,7.19,0,0,1-.74-2.4,21.33,21.33,0,0,1-.19-3V276.61H966v12.27a13.19,13.19,0,0,0,.21,2.36,9.27,9.27,0,0,0,.56,2,5.83,5.83,0,0,0,2.25,2.71,6.43,6.43,0,0,0,3.52,1,7.18,7.18,0,0,0,2.73-.53,8.39,8.39,0,0,0,2.34-1.41,9.4,9.4,0,0,0,1.8-2,8.77,8.77,0,0,0,1.14-2.42,14.94,14.94,0,0,0,.43-2.07,20.85,20.85,0,0,0,.19-3v-8.79H983v21.14Z"/><path class="cls-1" d="M990.46,268.09v12.78a10.2,10.2,0,0,1,9-4.84,10.74,10.74,0,0,1,4.2.83,10.12,10.12,0,0,1,3.38,2.33,11,11,0,0,1,2.27,3.52,12.45,12.45,0,0,1,0,8.94,11,11,0,0,1-2.27,3.52,10.12,10.12,0,0,1-3.38,2.33,10.74,10.74,0,0,1-4.2.83A10.94,10.94,0,0,1,997,298a9.5,9.5,0,0,1-2.44-1,11,11,0,0,1-2.25-1.68,10.2,10.2,0,0,1-1.87-2.54v4.88h-1.75V268.09Zm0,19.09a10.64,10.64,0,0,0,.69,3.87,9.36,9.36,0,0,0,1.92,3.06,8.84,8.84,0,0,0,2.84,2,8.79,8.79,0,0,0,7,0,9,9,0,0,0,2.85-2,9.18,9.18,0,0,0,1.91-3.06,11,11,0,0,0,0-7.74,9.18,9.18,0,0,0-1.91-3.06,8.83,8.83,0,0,0-2.85-2,8.47,8.47,0,0,0-3.48-.72,9,9,0,0,0-3.49.68,8.62,8.62,0,0,0-2.84,1.91,9.08,9.08,0,0,0-1.92,3A11.09,11.09,0,0,0,990.5,287.18Z"/><path class="cls-1" d="M1017,268.09v29.66h-1.74V268.09Z"/><path class="cls-1" d="M1023.36,268.79h2.79v2.79h-2.79Zm2.28,29h-1.74V276.61h1.74Z"/><path class="cls-1" d="M1041.63,279.32a6.63,6.63,0,0,0-2.05-1.35,6.54,6.54,0,0,0-2.52-.47,4.78,4.78,0,0,0-3.52,1.18,3.84,3.84,0,0,0-1.16,2.77,3.43,3.43,0,0,0,.77,2.25,7,7,0,0,0,2.6,1.7l3,1.24q5.42,2.06,5.42,5.92a5.16,5.16,0,0,1-1.9,4.14,7.81,7.81,0,0,1-5.19,1.59,8.21,8.21,0,0,1-2.38-.35,10.12,10.12,0,0,1-2.13-.91,8.51,8.51,0,0,1-1.74-1.28,7.58,7.58,0,0,1-1.22-1.45l1.12-1a6.51,6.51,0,0,0,1.18,1.41,9.27,9.27,0,0,0,1.55,1.1,8.38,8.38,0,0,0,1.77.74,7.43,7.43,0,0,0,5.88-.83,3.77,3.77,0,0,0,1.43-3.16,3.64,3.64,0,0,0-1-2.48,8,8,0,0,0-3-1.93l-3-1.24a9.91,9.91,0,0,1-3.7-2.34,4.52,4.52,0,0,1-1.14-3.08,4.81,4.81,0,0,1,.46-2.07,5.37,5.37,0,0,1,1.3-1.74,5.91,5.91,0,0,1,2-1.2,7.3,7.3,0,0,1,2.61-.45,7.85,7.85,0,0,1,3.14.6,7.24,7.24,0,0,1,2.4,1.65Z"/><path class="cls-1" d="M1050.61,281.45a13.88,13.88,0,0,1,1.4-2,9.56,9.56,0,0,1,1.89-1.75,10.17,10.17,0,0,1,2.42-1.22,9.14,9.14,0,0,1,2.93-.46,8.92,8.92,0,0,1,4.5,1.06,7.28,7.28,0,0,1,2.85,3,7.43,7.43,0,0,1,.74,2.4,22.92,22.92,0,0,1,.19,3v12.27h-1.74V285.48a13.39,13.39,0,0,0-.21-2.37,9.3,9.3,0,0,0-.57-2,5.87,5.87,0,0,0-2.24-2.71,6.43,6.43,0,0,0-3.52-1,7.18,7.18,0,0,0-2.73.53,8.12,8.12,0,0,0-2.35,1.41,10,10,0,0,0-1.8,2,9.38,9.38,0,0,0-1.14,2.42,15.14,15.14,0,0,0-.42,2.07,20.73,20.73,0,0,0-.2,3v8.79h-1.74V268.09h1.74Z"/><path class="cls-1" d="M1073.8,288a11,11,0,0,0,.79,3.53,9.36,9.36,0,0,0,1.8,2.8,8.19,8.19,0,0,0,6,2.54,8.52,8.52,0,0,0,4.47-1.18,9.88,9.88,0,0,0,3.24-3.16l1.2.89a12.22,12.22,0,0,1-3.76,3.58,9.63,9.63,0,0,1-5.15,1.38,10.53,10.53,0,0,1-4.2-.83,9.94,9.94,0,0,1-3.31-2.33,10.61,10.61,0,0,1-2.18-3.52,12.17,12.17,0,0,1-.8-4.47,11.74,11.74,0,0,1,.82-4.47,11.31,11.31,0,0,1,2.18-3.52,9.89,9.89,0,0,1,3.22-2.33,9.37,9.37,0,0,1,3.89-.83,9.56,9.56,0,0,1,4,.83,9.73,9.73,0,0,1,3.18,2.29,10.9,10.9,0,0,1,2.11,3.4,11.57,11.57,0,0,1,.77,4.24V288Zm16.53-1.51a12,12,0,0,0-.75-3.6,8.82,8.82,0,0,0-1.73-2.8,7.64,7.64,0,0,0-2.55-1.84,7.87,7.87,0,0,0-3.25-.66,7.25,7.25,0,0,0-3,.64,7.85,7.85,0,0,0-2.56,1.82,10,10,0,0,0-1.86,2.82,11.68,11.68,0,0,0-.93,3.62Z"/><path class="cls-1" d="M1107.63,277.46a8.33,8.33,0,0,0-2.94.51,8.92,8.92,0,0,0-2.44,1.35,9,9,0,0,0-3,4.38,16.13,16.13,0,0,0-.42,2.14,22.41,22.41,0,0,0-.2,3.12v8.79h-1.74V276.61h1.74v4.84a10.58,10.58,0,0,1,3.31-3.74,10.16,10.16,0,0,1,2.52-1.22,10.32,10.32,0,0,1,3.15-.46Z"/><path class="cls-2" d="M291.57,161.73a318.93,318.93,0,0,0-39.44-10.32q-22.26-4.47-42.57-10.7T174.61,125q-14.64-9.54-17-25.88-2-13.62,4.68-27.44a93.29,93.29,0,0,1,19.14-26.07,154.2,154.2,0,0,1,29.09-22.19A176.94,176.94,0,0,1,245.1,7.42,141.31,141.31,0,0,1,281,.22a86.63,86.63,0,0,1,33.19,3.89,51.32,51.32,0,0,1,22.07,13.62q8.78,9.35,10.34,20T341.35,59Q334.53,69.49,317,76.5q-5.86.39-4.88-2.14T317,68.71q3.9-3.1,8.2-6t4.68-3.7q13.67-17.9,8-29.77T313.43,11.12A78,78,0,0,0,283.37,8.2a137.77,137.77,0,0,0-33,7,186.17,186.17,0,0,0-32,14.4A155.87,155.87,0,0,0,191,49.06a108.73,108.73,0,0,0-19.13,22q-7.23,11.3-7.22,21.4a25.24,25.24,0,0,0,6.44,18.29,58.78,58.78,0,0,0,18,13.43,151.93,151.93,0,0,0,25.58,9.92q14.45,4.29,29.68,8t29.87,7.2a193.25,193.25,0,0,1,26.36,8.17Q315,162.9,321.24,169.9q3.52-.78,12.5-2.14T352.68,165q10-1.35,18.55-1.94a69.93,69.93,0,0,1,11.32-.2c2.86.53,4.1,1.69,3.71,3.5a5.32,5.32,0,0,1-3.71,3.9A62.55,62.55,0,0,1,369.66,173q-7,.78-14.64,1.17L340,175a105.84,105.84,0,0,0-13.67,1.55q8.58,14,4.69,29.19t-16.21,30A178.34,178.34,0,0,1,284,264.27a299.35,299.35,0,0,1-39.63,24.91,356.91,356.91,0,0,1-42.76,19.07,242.54,242.54,0,0,1-39.83,11.28q-18.16,3.32-31,1.17t-16.4-11.09a27,27,0,0,1-2-13.23A33.28,33.28,0,0,1,116,284.7a51.13,51.13,0,0,1,7.61-10.5q4.69-5.06,9.38-9.34,10.14-9.35,21.08-18.1t22.26-16.54a377.86,377.86,0,0,1,135.89-58.38Q304.84,166,291.57,161.73Zm26.94,16.34a357.5,357.5,0,0,0-84.93,28.41,408.48,408.48,0,0,0-76,47.48l-9.77,7.78q-5.85,4.68-11.32,9.93a124.67,124.67,0,0,0-10,10.7q-4.48,5.44-5.66,10.12-3.9,13.62,4.88,18.68t25,3.31q16.2-1.75,37.88-9.15a337.2,337.2,0,0,0,43.54-18.48,369.21,369.21,0,0,0,42-24.91q20.1-13.81,33.19-28.41t17.18-29Q328.67,190.14,318.51,178.07Z"/><path class="cls-2" d="M423.55,132.15q7,7,8.78,18.48a80.52,80.52,0,0,1-.19,24.33,111.65,111.65,0,0,1-7,25.29,88.82,88.82,0,0,1-11.91,21.21q-6.84,8.76-14.45,12.46a13.86,13.86,0,0,1-14.64-1c-2.6-1.81-4.49-5.06-5.66-9.72a73.37,73.37,0,0,1-2-16.16,129.22,129.22,0,0,1,1.17-19.46,160.57,160.57,0,0,1,3.71-19.26,104.07,104.07,0,0,1,5.28-15.57q2.93-6.6,6.44-9,7.8-5.06,6.64,3.9a58.46,58.46,0,0,1-2.35,6q-2.34,5.64-5.27,14t-5.66,17.9a128.35,128.35,0,0,0-3.9,18.29,41.24,41.24,0,0,0,.39,15.18c1,4.28,3.38,6.94,7,8q7.43,2.32,13.87-5.06A70.4,70.4,0,0,0,415,204a137.62,137.62,0,0,0,7.42-21.6q2.72-10.89,3.51-16.34a33,33,0,0,0-1.95-15.57,66,66,0,0,0-5.86-11.29q-3.13-4.67-5.08-7.78t.39-5.06q2-1.55,9.77-2.53T441.51,122q3.51-.39,9.76-1t13.28-1q13.27-.37,19.72,1.76t8.39,6.81q1.95,4.66.59,11.09t-2.93,14.2q-2.34,10.13-4.1,17.51t-3.51,14.21q-1.77,6.81-3.52,14.2t-4.1,17.91q3.53-4.68,10.35-15.57t15.62-24.32q8.79-13.44,18.74-27.64A292.67,292.67,0,0,1,539.52,125a121.19,121.19,0,0,1,18.16-17.32q8.4-6.22,14.64-3.5,7,3.12,9.18,11.87a64.9,64.9,0,0,1,1.17,20.62A209.33,209.33,0,0,1,579,161.73q-2.73,13.23-5.07,24.71a153.65,153.65,0,0,0-2.93,20q-.59,8.57,2.54,10.9,4.68,3.5,12.3-1.56a113.39,113.39,0,0,0,16-13.23,209.58,209.58,0,0,0,16-17.51q7.6-9.35,11.91-14.79,2.73-3.51,5.07-3.31c1.57.13,2.21,1.62,2,4.47q0,1.56-4.69,7.79t-11.71,14a215.37,215.37,0,0,1-15.43,15.37,90.68,90.68,0,0,1-16.4,12.06q-8,4.48-14.64,4.09t-9.38-9q-1.56-4.27-.39-13.62c.79-6.23,1.82-13.17,3.13-20.82s2.79-15.57,4.49-23.74a181.38,181.38,0,0,0,3.32-22.38,68.47,68.47,0,0,0-.39-16.73q-1.17-6.61-6.25-7.4c-2.34-.25-4.69.72-7,2.92a70.8,70.8,0,0,0-5.47,5.64,398.7,398.7,0,0,0-34,41.06Q506.73,182,492.27,205.31q-.39.8-4.68,7.79A137.33,137.33,0,0,1,478,226.72q-5.26,6.61-9.57,9.14t-4.29-5.64a74.16,74.16,0,0,1,1.76-10.31q1.75-8.37,4.68-19.66t6-24.13q3.12-12.84,6.25-23.73,3.51-11.69,1.17-17.32a12.28,12.28,0,0,0-8.2-7.4q-5.85-1.74-14.45-.78T443.07,129c-3.38.52-6.7,1-10,1.55S426.67,131.63,423.55,132.15Z"/><path class="cls-2" d="M422.09,428.22Q429,416.68,438.37,402t20.69-31.76q11.29-17,23.58-33.82t24.83-32.17a357.2,357.2,0,0,1,24.28-27.08,148.85,148.85,0,0,1,22.07-18.56q10.35-6.87,18.35-6.59a10.17,10.17,0,0,1,5.93,1.64,11.17,11.17,0,0,1,3.58,4.13,17.45,17.45,0,0,1,1.66,5.36,40.72,40.72,0,0,1,.41,5.64,103.14,103.14,0,0,1-2.34,19.66q-2.35,11.68-5.93,25t-8,27.76q-4.43,14.44-8.83,28.19t-8.14,26.25q-3.72,12.53-5.93,21.86-3.32,13.2-5.8,26.53a131.41,131.41,0,0,0-2.2,26.81c.18,2.56.45,5.27.83,8.11a59,59,0,0,0,1.79,8.66,46.71,46.71,0,0,0,3.17,8.25,17.77,17.77,0,0,0,5.24,6.32,13.47,13.47,0,0,0,3.45,1.65,7.64,7.64,0,0,1,3.17,1.93,4.05,4.05,0,0,1,1.11,3.3c-.19,1.1-1.2,1.46-3,1.1a11.54,11.54,0,0,1-4.83-2.48,24.86,24.86,0,0,1-4-3.57q-8.55-7.71-9.93-24.33T535.33,442a426.84,426.84,0,0,1,9.52-45.23q6.35-24,13-47t12.41-42.89A260.25,260.25,0,0,0,578,274c.18-1.28.37-2.79.55-4.54a25.3,25.3,0,0,0,0-5.22,14,14,0,0,0-1.38-4.81,6,6,0,0,0-3.86-3q-6.07-1.65-15,3.85a110.35,110.35,0,0,0-19.45,15.95q-10.49,10.45-22.2,24.61T493.4,330.34Q482,345.75,471.06,361.41t-19.87,29.28q-9,13.62-15.44,23.92t-9.25,15q-5,8.25-10.76,17.18a93,93,0,0,0-9.1,17.74,36.2,36.2,0,0,0-1.52,5.91q-.69,3.7-1.51,7.56-1.94,7.69-4.42,9.76t-4.14.55c-1.1-1-1.75-2.85-1.93-5.5a15.12,15.12,0,0,1,2.48-8.66q1.66-3,3.73-6.19a55,55,0,0,0,2.9-4.81,100,100,0,0,0,5.51-19,185.08,185.08,0,0,1,4.69-19.25q1.67-6,5.66-19.1t8.41-29.42q4.41-16.36,8.56-33.82a320.26,320.26,0,0,0,6.06-32.44,119.52,119.52,0,0,0,1-25.57q-1-10.59-6.48-13.06-5.52-2.2-16.14,3.3a169.78,169.78,0,0,0-23.73,15.39,351,351,0,0,0-27,22.82q-13.93,12.93-25.94,25.3t-20.69,22.82q-8.68,10.46-11.17,15.67-4.7,9.35-3,16.08a23.86,23.86,0,0,0,6.76,11.69A43.62,43.62,0,0,0,327.46,413q7.73,3.45,15.18,6.47c.92.37,2.43,1,4.55,1.78s4.32,1.75,6.62,2.75,4.37,2,6.21,3a11,11,0,0,1,3.31,2.33c.92,1.47,1.1,2.57.55,3.3s-1.75.92-3.59.55a13.92,13.92,0,0,1-4.69-2.33,34,34,0,0,0-4.69-2.89,137.71,137.71,0,0,0-15.45-6.74,97.62,97.62,0,0,1-16-7.56,43.16,43.16,0,0,1-12.27-10.58q-4.83-6.19-4.55-15.81.27-4.68,4.82-12.65a146,146,0,0,1,12.28-17.73q7.72-9.76,17.66-20.49t21-21q11-10.31,22.35-19.66a239.93,239.93,0,0,1,21.65-16.08,117.47,117.47,0,0,1,19-10.31q8.69-3.57,14.21-2.48a11.51,11.51,0,0,1,7.86,5.5,29.63,29.63,0,0,1,3.59,10.72,73.9,73.9,0,0,1,.69,13.75,128.62,128.62,0,0,1-1.38,14.57q-1.11,7.15-2.49,13.06c-.92,3.95-1.65,7-2.2,9.21q-3.31,12.93-6.62,25.57t-6.9,25.57l-16.28,60.77Q415.19,439.78,422.09,428.22Z"/><path class="cls-2" d="M624.58,354.54c.18-.37.78-1.65,1.79-3.85a38.42,38.42,0,0,1,3.45-6.05q1.93-2.75,3.45-3t1.52,4.95a42.78,42.78,0,0,1-1.66,7.42q-1.65,6-3.86,14.3t-4.14,17.59a104.74,104.74,0,0,0-2.21,17.46A43,43,0,0,0,624.3,417q1.66,5.51,6.9,6.05,6.07.83,12.69-4.12a78.82,78.82,0,0,0,12.55-11.83,122.33,122.33,0,0,0,10.35-13.74q4.41-6.87,6.34-10.18c1.11-2,2.07-2.7,2.9-2.06s1,1.79.42,3.44a52.15,52.15,0,0,1-5.25,10.31A114.94,114.94,0,0,1,662,407.47a118,118,0,0,1-11.45,12,46.65,46.65,0,0,1-11.86,8.11c-3.86,1.74-7.41,2.2-10.62,1.37s-5.66-3.62-7.31-8.38a36.74,36.74,0,0,1-2.48-10.86,88.14,88.14,0,0,1-.28-12.24q.27-6,1-11.41t1.25-8.39L610,397.43q-2.76,5.22-5.52,10.17a80.66,80.66,0,0,1-6.34,9.63q-8.83,11.53-14.35,12.23t-8.14-5.22q-2.61-5.91-2.2-16.5a104,104,0,0,1,3.31-21.86,99.62,99.62,0,0,1,8.13-21.31q5.25-10,12.42-15a23.44,23.44,0,0,1,7-2.89,21.61,21.61,0,0,1,8-.41,18.46,18.46,0,0,1,7.31,2.61A12.89,12.89,0,0,1,624.58,354.54Zm-2.48,5.77a7.5,7.5,0,0,1-2.35-2.88,10.43,10.43,0,0,0-1.1-2.34,6.48,6.48,0,0,0-2.48-2.06,19.56,19.56,0,0,0-6.21-1.52q-6.35-.81-12,5.09a59.32,59.32,0,0,0-10.07,14.85,99,99,0,0,0-7,19.11A85.1,85.1,0,0,0,578,408.7c-.18,5.32.45,9.21,1.93,11.69s4.14,2.43,8-.14q3.58-2.47,8.69-10.45t10.07-17.46q5-9.48,9.1-18.42T622.1,360.31Z"/><path class="cls-2" d="M673.13,415.85c.74-1.83,1.79-4.76,3.17-8.8s3-8.43,5-13.19,4.14-9.63,6.62-14.58a89.5,89.5,0,0,1,8-13.19,34.17,34.17,0,0,1,9.11-8.8,11.57,11.57,0,0,1,10.06-1.38q3.59,1.11,6.49,6a113.8,113.8,0,0,1,5.38,10.45q2.48,5.5,4.69,10.31t4.69,5.91a7.13,7.13,0,0,0,5,.41A19.58,19.58,0,0,0,746.1,387a28.39,28.39,0,0,0,4.41-3.16,15.82,15.82,0,0,1,4-2.61,2.36,2.36,0,0,1,3.45,1c.83,1.38.42,2.52-1.24,3.44q-2.76,1.38-6.21,3.3a36.17,36.17,0,0,1-7,3,15.78,15.78,0,0,1-7.17.55,10.91,10.91,0,0,1-6.62-4.12,29.85,29.85,0,0,1-4.28-7.15c-1.2-2.75-2.34-5.5-3.45-8.25a52.14,52.14,0,0,0-3.72-7.56,11.62,11.62,0,0,0-5.11-4.81q-4.12-1.65-8.27,1.65a37.09,37.09,0,0,0-8,9.48,110.27,110.27,0,0,0-7.45,14.44q-3.58,8.25-6.48,16.36t-5.25,15.12q-2.34,7-3.72,10.58c-.18.55-.46,1.29-.83,2.2a2,2,0,0,1-1.93,1.38c-2.94.73-4.41-.73-4.41-4.4a91.47,91.47,0,0,1,1-10.31q1-7.29,2.35-16.5t3.17-19.24q1.79-10,3.45-18.56t3-14.3q1.38-5.78,2.21-6.6c2.76-2.2,4.59-1.28,5.52,2.75,0,.19-.24,1.15-.69,2.89s-1,3.67-1.52,5.77-1.1,4.13-1.65,6.05-.93,3.16-1.11,3.71q-1.38,5.51-2.62,12.24t-2.48,13.88q-1.24,7.15-2.35,14T673.13,415.85Z"/><path class="cls-2" d="M802,354.54c.19-.37.79-1.65,1.8-3.85a38.42,38.42,0,0,1,3.45-6.05q1.92-2.75,3.45-3c1-.18,1.51,1.47,1.51,4.95a43.36,43.36,0,0,1-1.65,7.42q-1.66,6-3.86,14.3t-4.14,17.59a103.7,103.7,0,0,0-2.21,17.46A42.67,42.67,0,0,0,801.69,417q1.65,5.51,6.9,6.05,6.06.83,12.69-4.12a79.68,79.68,0,0,0,12.55-11.83,122.2,122.2,0,0,0,10.34-13.74q4.41-6.87,6.35-10.18,1.65-3,2.9-2.06c.82.65,1,1.79.41,3.44a52,52,0,0,1-5.24,10.31,117.6,117.6,0,0,1-9.24,12.65,120.26,120.26,0,0,1-11.45,12A46.65,46.65,0,0,1,816,427.54q-5.81,2.61-10.63,1.37t-7.31-8.38a37.06,37.06,0,0,1-2.48-10.86,91.35,91.35,0,0,1-.28-12.24q.28-6,1-11.41t1.24-8.39l-10.21,19.8q-2.76,5.22-5.51,10.17a79.55,79.55,0,0,1-6.35,9.63q-8.84,11.53-14.34,12.23c-3.69.46-6.39-1.28-8.14-5.22s-2.49-9.44-2.21-16.5a104.61,104.61,0,0,1,3.31-21.86,99.12,99.12,0,0,1,8.14-21.31q5.24-10,12.41-15a23.39,23.39,0,0,1,7-2.89,21.59,21.59,0,0,1,8-.41A18.58,18.58,0,0,1,797,348.9,12.87,12.87,0,0,1,802,354.54Zm-2.48,5.77a7.36,7.36,0,0,1-2.34-2.88,10.92,10.92,0,0,0-1.11-2.34,6.41,6.41,0,0,0-2.48-2.06,19.56,19.56,0,0,0-6.21-1.52q-6.35-.81-12,5.09a59.32,59.32,0,0,0-10.07,14.85,98.31,98.31,0,0,0-7,19.11,85.81,85.81,0,0,0-2.9,18.14q-.27,8,1.93,11.69t8-.14q3.59-2.47,8.69-10.45T784,392.34q5-9.48,9.11-18.42T799.48,360.31Z"/><path class="cls-1" d="M0,210.57H41.6v5.8H12.4v163.2H41.6v5.8H0Z"/></g></g></svg>