<svg xmlns="http://www.w3.org/2000/svg" viewBox="0 0 99.38 93.41"><defs><style>.cls-1{fill:none;}.cls-2{fill:#71c15e;}</style></defs><g id="Layer_2" data-name="Layer 2"><g id="Layer_2-2" data-name="Layer 2"><path class="cls-1" d="M15.32,84.58a10.34,10.34,0,0,0,6.2.82l.27,0a49.14,49.14,0,0,1-7.52-5.9,4.5,4.5,0,0,0-.16.48Q13.15,83.32,15.32,84.58Z"/><path class="cls-2" d="M21.52,85.4a10.34,10.34,0,0,1-6.2-.82q-2.18-1.26-1.21-4.64a4.5,4.5,0,0,1,.16-.48c-.48-.46-.94-.92-1.4-1.39A8.48,8.48,0,0,0,12,80.91a6.59,6.59,0,0,0,.49,3.28q.87,2.22,4.06,2.75A22.64,22.64,0,0,0,24,86.69c-.75-.42-1.49-.87-2.21-1.33Z"/><path class="cls-2" d="M30.92,83.13a83,83,0,0,0,10.8-4.59,90.1,90.1,0,0,0,10.42-6.18,45.49,45.49,0,0,0,8.23-7,18.56,18.56,0,0,0,4.27-7.19,6.82,6.82,0,0,0-1.51-6.57A89.14,89.14,0,0,0,42.06,58.6,101.91,101.91,0,0,0,23.22,70.38L20.8,72.31c-1,.78-1.91,1.6-2.81,2.46a30.31,30.31,0,0,0-2.47,2.66,7.4,7.4,0,0,0-1.25,2,49.14,49.14,0,0,0,7.52,5.9A45.57,45.57,0,0,0,30.92,83.13Z"/><path class="cls-2" d="M49.69,0C22.25,0,0,20.91,0,46.71A45,45,0,0,0,12.87,78.07l0-.06a13.25,13.25,0,0,1,1.89-2.61c.78-.83,1.55-1.61,2.33-2.31,1.67-1.55,3.42-3,5.23-4.49s3.65-2.82,5.52-4.11A93.72,93.72,0,0,1,61.58,50a16.44,16.44,0,0,0-5.13-2.51,77.84,77.84,0,0,0-9.79-2.56A107.14,107.14,0,0,1,36.1,42.28a34,34,0,0,1-8.67-3.91A8.89,8.89,0,0,1,23.22,32a11.62,11.62,0,0,1,1.16-6.8,23,23,0,0,1,4.75-6.47,38.59,38.59,0,0,1,7.22-5.51,43.36,43.36,0,0,1,8.57-3.95,34.81,34.81,0,0,1,8.91-1.79,21.72,21.72,0,0,1,8.24,1,12.78,12.78,0,0,1,5.47,3.38,9.17,9.17,0,0,1,2.57,5A7.47,7.47,0,0,1,68.8,22c-1.13,1.74-3.15,3.18-6,4.34-1,.07-1.38-.11-1.21-.53a3.7,3.7,0,0,1,1.21-1.4c.64-.51,1.32-1,2-1.49A5.2,5.2,0,0,0,65.94,22q3.39-4.44,2-7.39c-.94-2-3-3.46-6.06-4.49a19.24,19.24,0,0,0-7.45-.72,33.5,33.5,0,0,0-8.19,1.74,46,46,0,0,0-7.95,3.57,38.77,38.77,0,0,0-6.78,4.83A26.92,26.92,0,0,0,26.76,25,9.92,9.92,0,0,0,25,30.31a6.31,6.31,0,0,0,1.6,4.54A14.58,14.58,0,0,0,31,38.18a37.29,37.29,0,0,0,6.34,2.46q3.59,1.06,7.37,2c2.52.62,5,1.21,7.41,1.79a46.87,46.87,0,0,1,6.54,2,12.9,12.9,0,0,1,5.13,3.09c.58-.13,1.62-.31,3.1-.53s3-.45,4.7-.68,3.18-.39,4.6-.48A16.11,16.11,0,0,1,79,47.79c.71.13,1,.42.92.87a1.29,1.29,0,0,1-.92,1,15.1,15.1,0,0,1-3.19.68c-1.17.13-2.38.23-3.64.29l-3.73.19a25.72,25.72,0,0,0-3.39.39,9,9,0,0,1,1.16,7.24,19,19,0,0,1-4,7.43,43.7,43.7,0,0,1-7.65,7.1,74.07,74.07,0,0,1-9.83,6.18,89.61,89.61,0,0,1-10.61,4.73,60.52,60.52,0,0,1-9.88,2.8l-.24,0a51.78,51.78,0,0,0,25.69,6.72c27.45,0,49.69-20.91,49.69-46.7S77.14,0,49.69,0Z"/></g></g></svg>