<svg xmlns="http://www.w3.org/2000/svg" viewBox="0 0 382.48 317.38"><defs><style>.cls-1{fill:#71c15e;}.cls-2{fill:#232323;}</style></defs><g id="Layer_2" data-name="Layer 2"><g id="Layer_2-2" data-name="Layer 2"><path class="cls-1" d="M126.75,160.45a225.53,225.53,0,0,0-27.87-7.29Q83.16,150,68.81,145.6a97.1,97.1,0,0,1-24.69-11.14q-10.33-6.74-12-18.28A33.12,33.12,0,0,1,35.43,96.8,65.78,65.78,0,0,1,49,78.38,109.54,109.54,0,0,1,69.5,62.7,125.3,125.3,0,0,1,93.92,51.43a99.88,99.88,0,0,1,25.38-5.09,61.24,61.24,0,0,1,23.45,2.75,36.29,36.29,0,0,1,15.59,9.63q6.19,6.6,7.31,14.16t-3.73,15q-4.83,7.42-17.24,12.37-4.14.28-3.45-1.51a10.67,10.67,0,0,1,3.45-4q2.76-2.19,5.79-4.26a14.3,14.3,0,0,0,3.31-2.61q9.66-12.64,5.66-21T142.2,54A55.42,55.42,0,0,0,121,52a97.13,97.13,0,0,0-23.32,5A132,132,0,0,0,75,67.1,110.16,110.16,0,0,0,55.71,80.85,76.82,76.82,0,0,0,42.19,96.38q-5.1,8-5.1,15.13a17.87,17.87,0,0,0,4.55,12.92,41.57,41.57,0,0,0,12.69,9.48,106.66,106.66,0,0,0,18.07,7q10.2,3,21,5.64t21.1,5.09a135.12,135.12,0,0,1,18.62,5.77q10.22,3.86,14.62,8.8,2.49-.56,8.83-1.51t13.38-1.93q7-1,13.11-1.37a48.45,48.45,0,0,1,8-.14c2,.37,2.89,1.19,2.62,2.47a3.75,3.75,0,0,1-2.62,2.75,44.4,44.4,0,0,1-9.11,1.93q-5,.56-10.34.82l-10.62.55a74.79,74.79,0,0,0-9.66,1.1,25.78,25.78,0,0,1,3.31,20.62q-2.76,10.73-11.45,21.17a125.78,125.78,0,0,1-21.79,20.21,211.61,211.61,0,0,1-28,17.6A252.21,252.21,0,0,1,63.16,264a170.1,170.1,0,0,1-28.14,8q-12.83,2.34-21.93.83T1.5,264.92a19.2,19.2,0,0,1-1.38-9.34,23.51,23.51,0,0,1,2.62-8.25,36.56,36.56,0,0,1,5.38-7.43q3.32-3.57,6.62-6.6,7.17-6.59,14.9-12.78t15.73-11.69a266.87,266.87,0,0,1,96-41.24Q136.12,163.47,126.75,160.45Zm19,11.54a253,253,0,0,0-60,20.07,289.14,289.14,0,0,0-53.66,33.55l-6.89,5.5q-4.14,3.28-8,7a86.37,86.37,0,0,0-7,7.56,19,19,0,0,0-4,7.15Q3.43,262.45,9.64,266t17.65,2.34q11.46-1.23,26.76-6.46a238.57,238.57,0,0,0,30.77-13.06,259.67,259.67,0,0,0,29.65-17.6,130.17,130.17,0,0,0,23.45-20.07q9.24-10.3,12.14-20.48T145.78,172Z"/><path class="cls-1" d="M187.16,200q2.49-3.3,7.31-11t11-17.18q6.21-9.5,13.24-19.53a208.4,208.4,0,0,1,13.93-17.87,85.71,85.71,0,0,1,12.83-12.23q5.93-4.4,10.34-2.48c3.32,1.47,5.47,4.27,6.49,8.39a46.12,46.12,0,0,1,.83,14.57,149.45,149.45,0,0,1-2.63,17.74q-1.92,9.35-3.58,17.45a109.26,109.26,0,0,0-2.07,14.16c-.28,4,.32,6.6,1.79,7.7q3.31,2.48,8.69-1.1a79.3,79.3,0,0,0,11.31-9.35A143.84,143.84,0,0,0,288,176.94q5.38-6.6,8.42-10.45c1.28-1.65,2.48-2.42,3.58-2.33s1.56,1.14,1.38,3.16c0,.73-1.1,2.57-3.31,5.5s-5,6.23-8.27,9.9-7,7.28-10.9,10.86a64.85,64.85,0,0,1-11.59,8.52Q261.65,205.27,257,205t-6.62-6.33q-1.11-3-.28-9.62t2.21-14.71q1.38-8.1,3.17-16.77a128.29,128.29,0,0,0,2.35-15.81,48.77,48.77,0,0,0-.28-11.82c-.55-3.12-2-4.86-4.41-5.23a6.29,6.29,0,0,0-5,2.06,47.86,47.86,0,0,0-3.86,4,280.38,280.38,0,0,0-24,29q-10.77,15-21,31.48c-.18.37-1.29,2.2-3.31,5.5a96.6,96.6,0,0,1-6.76,9.62,26.61,26.61,0,0,1-6.76,6.46c-2,1.2-3-.14-3-4a60.9,60.9,0,0,1,1.65-8.38q1.66-7,4.14-16.77t5.38-20.62q2.89-10.86,5.52-20.07t4.41-15.26a52.88,52.88,0,0,1,2.07-6.33q4.41-3.57,5-1.1c.36,1.65.13,4-.69,7.15s-1.8,6.24-2.9,9.35-1.75,4.86-1.93,5.22q-4.41,14.31-8,28.74T187.16,200Z"/><path class="cls-1" d="M297.23,198.66q1.11-2.74,3.18-8.8t5-13.19q2.89-7.15,6.62-14.58a90.9,90.9,0,0,1,8-13.19,34.17,34.17,0,0,1,9.11-8.8,11.59,11.59,0,0,1,10.07-1.38c2.38.74,4.55,2.75,6.48,6.05A113.8,113.8,0,0,1,351,155.22q2.48,5.5,4.69,10.31t4.69,5.91a7.15,7.15,0,0,0,5,.42,20.1,20.1,0,0,0,4.82-2.07,29,29,0,0,0,4.42-3.16,15.64,15.64,0,0,1,4-2.61,2.35,2.35,0,0,1,3.44,1c.83,1.38.42,2.52-1.24,3.44q-2.76,1.38-6.2,3.3a36.52,36.52,0,0,1-7,3,15.78,15.78,0,0,1-7.17.55,10.91,10.91,0,0,1-6.62-4.12,30.18,30.18,0,0,1-4.28-7.15c-1.2-2.75-2.34-5.5-3.45-8.25a52.14,52.14,0,0,0-3.72-7.56,11.65,11.65,0,0,0-5.1-4.81q-4.14-1.65-8.28,1.65a37.09,37.09,0,0,0-8,9.48A110.27,110.27,0,0,0,313.51,169q-3.58,8.25-6.48,16.36t-5.24,15.12c-1.57,4.67-2.81,8.21-3.73,10.59-.18.54-.46,1.28-.83,2.19a2,2,0,0,1-1.93,1.38c-2.94.73-4.41-.73-4.41-4.4a91.67,91.67,0,0,1,1-10.31q1-7.29,2.35-16.5t3.17-19.24q1.8-10,3.45-18.56t3-14.3q1.38-5.78,2.21-6.6,4.14-3.3,5.52,2.75a28.08,28.08,0,0,1-.69,2.89c-.46,1.74-1,3.67-1.52,5.77s-1.1,4.13-1.65,6-.93,3.16-1.11,3.71q-1.38,5.5-2.62,12.24T301.51,172q-1.25,7.15-2.35,14T297.23,198.66Z"/><path class="cls-1" d="M215.5,317.38a157.29,157.29,0,0,1-114.88-49.22l3.9-3.71A152,152,0,0,0,215.5,312c84.54,0,153.31-68.77,153.31-153.31S300,5.38,215.5,5.38a152.66,152.66,0,0,0-84.23,25.19l-3-4.49A158,158,0,0,1,215.5,0C303,0,374.19,71.19,374.19,158.69S303,317.38,215.5,317.38Z"/><path class="cls-2" d="M202.76,85.78a37.38,37.38,0,0,1,5.55-.42c3.75,0,6.42.87,8.19,2.52a9.31,9.31,0,0,1,2.85,7.26,10.69,10.69,0,0,1-2.91,7.86c-1.89,1.89-5,2.91-8.94,2.91a42.13,42.13,0,0,1-4.74-.24Zm2.61,17.88a16.48,16.48,0,0,0,2.64.15c5.58,0,8.61-3.12,8.61-8.58,0-4.77-2.67-7.8-8.19-7.8a14.83,14.83,0,0,0-3.06.27Z"/><path class="cls-2" d="M227.24,99c.06,3.57,2.34,5,5,5a9.55,9.55,0,0,0,4-.75l.45,1.89a11.76,11.76,0,0,1-4.83.9c-4.47,0-7.14-2.94-7.14-7.32s2.58-7.83,6.81-7.83c4.74,0,6,4.17,6,6.84a10,10,0,0,1-.09,1.23ZM235,97.06c0-1.68-.69-4.29-3.66-4.29-2.67,0-3.84,2.46-4,4.29Z"/><path class="cls-2" d="M243.44,103a6.92,6.92,0,0,0,3.48,1c1.92,0,2.82-1,2.82-2.16s-.75-2-2.7-2.67c-2.61-.93-3.84-2.37-3.84-4.11,0-2.34,1.89-4.26,5-4.26a7.25,7.25,0,0,1,3.57.9l-.66,1.92a5.65,5.65,0,0,0-3-.84c-1.56,0-2.43.9-2.43,2s.87,1.74,2.76,2.46c2.52,1,3.81,2.22,3.81,4.38,0,2.55-2,4.35-5.43,4.35a8.28,8.28,0,0,1-4.08-1Z"/><path class="cls-2" d="M261.62,87.13a1.64,1.64,0,0,1-3.27,0A1.61,1.61,0,0,1,260,85.48,1.57,1.57,0,0,1,261.62,87.13Zm-2.94,18.6V91.21h2.64v14.52Z"/><path class="cls-2" d="M281.21,91.21c-.06,1.05-.12,2.22-.12,4v8.43c0,3.33-.66,5.37-2.07,6.63a7.7,7.7,0,0,1-5.28,1.74,9.37,9.37,0,0,1-4.83-1.2l.66-2a8.19,8.19,0,0,0,4.26,1.14c2.7,0,4.68-1.41,4.68-5.07v-1.62h-.06a5.18,5.18,0,0,1-4.62,2.43c-3.6,0-6.18-3.06-6.18-7.08,0-4.92,3.21-7.71,6.54-7.71a4.83,4.83,0,0,1,4.53,2.52h.06l.12-2.19Zm-2.73,5.73a3.76,3.76,0,0,0-.15-1.2A3.8,3.8,0,0,0,274.64,93c-2.52,0-4.32,2.13-4.32,5.49,0,2.85,1.44,5.22,4.29,5.22a3.86,3.86,0,0,0,3.66-2.7,4.59,4.59,0,0,0,.21-1.41Z"/><path class="cls-2" d="M288.29,95.14c0-1.5,0-2.73-.12-3.93h2.34l.15,2.4h.06a5.34,5.34,0,0,1,4.8-2.73c2,0,5.13,1.2,5.13,6.18v8.67H298V97.36c0-2.34-.87-4.29-3.36-4.29a3.75,3.75,0,0,0-3.54,2.7,3.8,3.8,0,0,0-.18,1.23v8.73h-2.64Z"/><path class="cls-2" d="M309.41,99c.06,3.57,2.34,5,5,5a9.55,9.55,0,0,0,4-.75l.45,1.89a11.76,11.76,0,0,1-4.83.9c-4.47,0-7.14-2.94-7.14-7.32s2.58-7.83,6.81-7.83c4.74,0,6,4.17,6,6.84a10,10,0,0,1-.09,1.23Zm7.74-1.89c0-1.68-.69-4.29-3.66-4.29-2.67,0-3.84,2.46-4.05,4.29Z"/><path class="cls-2" d="M326,95.74c0-1.71,0-3.18-.12-4.53h2.31l.09,2.85h.12a4.36,4.36,0,0,1,4-3.18,2.86,2.86,0,0,1,.75.09v2.49a4,4,0,0,0-.9-.09c-1.86,0-3.18,1.41-3.54,3.39a7.43,7.43,0,0,0-.12,1.23v7.74H326Z"/></g></g></svg>