<svg xmlns="http://www.w3.org/2000/svg" viewBox="0 0 131.32 117.28"><defs><style>.cls-1,.cls-2{fill:#71c15e;}.cls-2{font-size:8.88px;font-family:NEXONLv1GothicLight, NEXON Lv1 Gothic;}.cls-3{fill:none;stroke:#71c15e;stroke-linecap:round;stroke-miterlimit:10;stroke-width:1.78px;}</style></defs><g id="Layer_2" data-name="Layer 2"><g id="Layer_2-2" data-name="Layer 2"><path class="cls-1" d="M46.27,45.26A83.52,83.52,0,0,0,36.1,42.6q-5.74-1.16-11-2.76a35.38,35.38,0,0,1-9-4.06,9.26,9.26,0,0,1-4.38-6.68A12.05,12.05,0,0,1,12.93,22a24.21,24.21,0,0,1,4.94-6.73,40.48,40.48,0,0,1,7.5-5.72,46.26,46.26,0,0,1,8.91-4.11,36.33,36.33,0,0,1,9.27-1.86,22.55,22.55,0,0,1,8.56,1A13.24,13.24,0,0,1,57.8,8.13a9.52,9.52,0,0,1,2.67,5.17,7.79,7.79,0,0,1-1.36,5.47c-1.18,1.8-3.27,3.31-6.3,4.51-1,.07-1.42-.11-1.25-.55a3.86,3.86,0,0,1,1.25-1.46c.67-.53,1.38-1.05,2.12-1.55a5.59,5.59,0,0,0,1.21-.95q3.53-4.62,2.06-7.68T51.91,6.42a20,20,0,0,0-7.76-.75,35.85,35.85,0,0,0-8.51,1.8,48.39,48.39,0,0,0-8.25,3.72,39.31,39.31,0,0,0-7,5,27.94,27.94,0,0,0-4.94,5.67,10.33,10.33,0,0,0-1.86,5.52,6.52,6.52,0,0,0,1.66,4.71,15.19,15.19,0,0,0,4.63,3.47,39.71,39.71,0,0,0,6.6,2.56c2.48.73,5,1.42,7.65,2l7.71,1.86a49.78,49.78,0,0,1,6.8,2.11,13.54,13.54,0,0,1,5.33,3.21c.61-.13,1.68-.32,3.23-.55s3.17-.47,4.88-.7,3.3-.41,4.78-.51a18.61,18.61,0,0,1,2.92,0c.74.14,1.06.44,1,.91a1.36,1.36,0,0,1-1,1,15.45,15.45,0,0,1-3.32.7q-1.81.21-3.78.3l-3.87.2a27.43,27.43,0,0,0-3.53.41,9.38,9.38,0,0,1,1.21,7.52,19.86,19.86,0,0,1-4.18,7.73,46.07,46.07,0,0,1-7.95,7.38,77.05,77.05,0,0,1-10.23,6.42,91,91,0,0,1-11,4.92A62.67,62.67,0,0,1,12.78,86a23.59,23.59,0,0,1-8,.3Q1.45,85.71.55,83.4A7,7,0,0,1,0,80a8.77,8.77,0,0,1,1-3,13.17,13.17,0,0,1,2-2.71c.81-.87,1.62-1.67,2.42-2.41,1.75-1.61,3.56-3.16,5.44-4.67s3.79-2.92,5.74-4.26A97.25,97.25,0,0,1,51.61,47.87,17.46,17.46,0,0,0,46.27,45.26Zm6.95,4.22A92.42,92.42,0,0,0,31.31,56.8,105.75,105.75,0,0,0,11.73,69.05l-2.52,2c-1,.8-2,1.65-2.92,2.56a31.28,31.28,0,0,0-2.57,2.76A6.81,6.81,0,0,0,2.26,79q-1,3.51,1.26,4.81t6.44.86a46.91,46.91,0,0,0,9.77-2.36A86,86,0,0,0,31,77.53a96.4,96.4,0,0,0,10.83-6.42,48.17,48.17,0,0,0,8.56-7.33,19.39,19.39,0,0,0,4.43-7.48A7.07,7.07,0,0,0,53.22,49.48Z"/><path class="cls-1" d="M54.45,82.35c.6-.81,1.49-2.14,2.67-4s2.52-4,4-6.27,3.12-4.68,4.83-7.13a75.33,75.33,0,0,1,5.09-6.52,31.48,31.48,0,0,1,4.68-4.47q2.16-1.61,3.78-.9a4.23,4.23,0,0,1,2.36,3.06,16.93,16.93,0,0,1,.31,5.32,54.22,54.22,0,0,1-1,6.47q-.7,3.42-1.31,6.38a40.42,40.42,0,0,0-.76,5.17c-.1,1.47.12,2.41.66,2.81.8.6,1.86.47,3.17-.4a28.73,28.73,0,0,0,4.13-3.42,54,54,0,0,0,4.13-4.51q2-2.42,3.07-3.82c.47-.6.91-.88,1.31-.85s.57.42.5,1.15a5.78,5.78,0,0,1-1.21,2c-.8,1.07-1.81,2.28-3,3.61s-2.53,2.66-4,4a24.2,24.2,0,0,1-4.23,3.11,7,7,0,0,1-3.78,1.05c-1.14-.06-2-.83-2.42-2.3a8.18,8.18,0,0,1-.1-3.52q.3-2.4.81-5.37t1.16-6.12a46.6,46.6,0,0,0,.85-5.77,17.47,17.47,0,0,0-.1-4.32c-.2-1.13-.74-1.77-1.61-1.9a2.26,2.26,0,0,0-1.81.75,15,15,0,0,0-1.41,1.46,100.85,100.85,0,0,0-8.76,10.58q-3.93,5.48-7.66,11.5c-.07.13-.47.8-1.21,2a35.93,35.93,0,0,1-2.46,3.52A9.83,9.83,0,0,1,52.74,87c-.74.44-1.11-.05-1.11-1.45a22.23,22.23,0,0,1,.6-3.06c.41-1.71.91-3.75,1.52-6.12s1.25-4.89,2-7.53,1.37-5.09,2-7.33,1.18-4.1,1.61-5.57a18.38,18.38,0,0,1,.76-2.31c1.07-.87,1.68-1,1.81-.4a5.84,5.84,0,0,1-.25,2.61c-.3,1.14-.65,2.28-1.06,3.41S60,61,59.89,61.17Q58.27,66.39,57,71.66C56.09,75.17,55.26,78.73,54.45,82.35Z"/><path class="cls-1" d="M96.82,80.39c.27-.67.66-1.74,1.16-3.22s1.11-3.07,1.81-4.81,1.51-3.52,2.42-5.32a32.73,32.73,0,0,1,2.92-4.82A12.34,12.34,0,0,1,108.45,59a4.2,4.2,0,0,1,3.68-.5,4.46,4.46,0,0,1,2.37,2.2,41.45,41.45,0,0,1,2,3.82c.6,1.34,1.17,2.59,1.71,3.76a4.16,4.16,0,0,0,1.71,2.16,2.62,2.62,0,0,0,1.82.15,7.7,7.7,0,0,0,1.76-.75,10.78,10.78,0,0,0,1.61-1.16,5.74,5.74,0,0,1,1.46-1,.86.86,0,0,1,1.26.35q.45.75-.45,1.26c-.68.33-1.43.73-2.27,1.2a12.75,12.75,0,0,1-2.57,1.1,5.7,5.7,0,0,1-2.62.2,3.94,3.94,0,0,1-2.41-1.5,10.75,10.75,0,0,1-1.56-2.61c-.44-1-.86-2-1.26-3A20.26,20.26,0,0,0,113.29,62a4.3,4.3,0,0,0-1.87-1.76,2.9,2.9,0,0,0-3,.6,13.81,13.81,0,0,0-2.92,3.47,40.75,40.75,0,0,0-2.72,5.27q-1.31,3-2.36,6T98.48,81c-.57,1.7-1,3-1.36,3.86q-.09.3-.3.81a.71.71,0,0,1-.7.5c-1.08.27-1.61-.27-1.61-1.61a31.9,31.9,0,0,1,.35-3.76c.23-1.77.52-3.78.85-6s.73-4.59,1.16-7,.86-4.7,1.26-6.78.77-3.81,1.11-5.21a7.37,7.37,0,0,1,.8-2.41c1-.81,1.68-.47,2,1,0,.07-.09.42-.25,1s-.36,1.34-.56,2.11-.4,1.51-.6,2.21-.34,1.15-.4,1.36c-.34,1.33-.66,2.82-1,4.46s-.61,3.33-.91,5.07-.59,3.45-.85,5.12S97,79,96.82,80.39Z"/><text class="cls-2" transform="translate(77.18 48.86) scale(0.91 1)">Designer</text><path class="cls-3" d="M67.53.89A57.75,57.75,0,1,1,18.22,88.71"/></g></g></svg>