<svg xmlns="http://www.w3.org/2000/svg" viewBox="0 0 551.54 258.32"><defs><style>.cls-1{fill:#71c15e;}</style></defs><g id="Layer_2" data-name="Layer 2"><g id="Layer_2-2" data-name="Layer 2"><path class="cls-1" d="M119.47,176.25q6.89-11.55,16.28-26.26t20.68-31.75Q167.74,101.19,180,84.42t24.83-32.17a355.28,355.28,0,0,1,24.28-27.08A147.73,147.73,0,0,1,251.2,6.61Q261.55-.26,269.54,0a10.11,10.11,0,0,1,5.94,1.65,11.06,11.06,0,0,1,3.58,4.12,17.43,17.43,0,0,1,1.66,5.37,40.47,40.47,0,0,1,.41,5.63,103.14,103.14,0,0,1-2.34,19.66q-2.35,11.69-5.94,25t-8,27.77q-4.41,14.43-8.82,28.18t-8.14,26.26q-3.72,12.51-5.93,21.86-3.32,13.18-5.8,26.53a131.35,131.35,0,0,0-2.2,26.81q.27,3.84.82,8.11a60.71,60.71,0,0,0,1.8,8.66,46.31,46.31,0,0,0,3.17,8.24,17.52,17.52,0,0,0,5.24,6.33,13.47,13.47,0,0,0,3.45,1.65,7.51,7.51,0,0,1,3.17,1.92,4.05,4.05,0,0,1,1.11,3.3c-.19,1.1-1.2,1.47-3,1.1a11.44,11.44,0,0,1-4.83-2.47,24.34,24.34,0,0,1-4-3.58q-8.55-7.69-9.93-24.33t1.79-37.8a426.31,426.31,0,0,1,9.52-45.23q6.35-24.06,13-47t12.41-42.89A260.56,260.56,0,0,0,275.34,22c.18-1.28.36-2.8.55-4.54a25.3,25.3,0,0,0,0-5.22,14.23,14.23,0,0,0-1.38-4.82,6,6,0,0,0-3.86-3q-6.07-1.65-15,3.85a109.9,109.9,0,0,0-19.45,16Q225.68,34.65,214,48.81T190.78,78.37q-11.44,15.41-22.34,31.07t-19.87,29.28q-9,13.6-15.45,23.92t-9.24,15q-5,8.25-10.76,17.19a93.26,93.26,0,0,0-9.1,17.73,36.48,36.48,0,0,0-1.52,5.91c-.46,2.48-1,5-1.51,7.56q-1.93,7.69-4.42,9.76t-4.14.55c-1.1-1-1.75-2.84-1.93-5.49A15.17,15.17,0,0,1,93,222.16c1.11-2,2.35-4.07,3.73-6.18a53.27,53.27,0,0,0,2.89-4.81,99.49,99.49,0,0,0,5.52-19A185.08,185.08,0,0,1,109.81,173q1.66-6,5.66-19.11t8.41-29.42q4.41-16.35,8.55-33.82a317.2,317.2,0,0,0,6.07-32.44,119.5,119.5,0,0,0,1-25.57Q138.5,22,133,19.53q-5.52-2.19-16.14,3.3a169.69,169.69,0,0,0-23.73,15.4,348.78,348.78,0,0,0-27,22.82Q52.15,74,40.15,86.34T19.46,109.16q-8.69,10.45-11.17,15.67-4.69,9.36-3,16.09A23.93,23.93,0,0,0,12,152.6,43.83,43.83,0,0,0,24.84,161q7.72,3.44,15.18,6.46c.91.37,2.43,1,4.55,1.79S48.89,171,51.19,172s4.37,2,6.21,3a11,11,0,0,1,3.31,2.34c.91,1.47,1.1,2.57.55,3.3s-1.75.92-3.59.55A14.15,14.15,0,0,1,53,178.86,35,35,0,0,0,48.29,176a137.74,137.74,0,0,0-15.45-6.73,99.29,99.29,0,0,1-16-7.56A43,43,0,0,1,4.57,151.09Q-.26,144.91,0,135.28q.29-4.67,4.83-12.65A146.83,146.83,0,0,1,17.12,104.9q7.72-9.75,17.65-20.48t21-21q11-10.31,22.35-19.65A242.08,242.08,0,0,1,99.74,27.64a118.25,118.25,0,0,1,19-10.31q8.68-3.57,14.21-2.47a11.48,11.48,0,0,1,7.86,5.5,29.31,29.31,0,0,1,3.58,10.72,72.22,72.22,0,0,1,.69,13.75,126.79,126.79,0,0,1-1.37,14.57q-1.11,7.16-2.49,13.06t-2.2,9.21q-3.31,12.93-6.63,25.57t-6.89,25.57l-16.28,60.76Q112.57,187.8,119.47,176.25Z"/><path class="cls-1" d="M322,102.56c.18-.36.78-1.65,1.79-3.85a38.31,38.31,0,0,1,3.45-6q1.94-2.74,3.45-3t1.52,5a42.78,42.78,0,0,1-1.66,7.42q-1.65,6.06-3.86,14.3t-4.14,17.6a104.48,104.48,0,0,0-2.21,17.46A43,43,0,0,0,321.68,165c1.11,3.66,3.4,5.68,6.9,6q6.06.82,12.69-4.12a79.63,79.63,0,0,0,12.55-11.82,121.51,121.51,0,0,0,10.35-13.75q4.41-6.87,6.34-10.17c1.11-2,2.07-2.7,2.9-2.06s1,1.78.41,3.43a51.21,51.21,0,0,1-5.24,10.31,113.07,113.07,0,0,1-9.24,12.65,118.12,118.12,0,0,1-11.45,12A46.39,46.39,0,0,1,336,175.56c-3.86,1.75-7.41,2.2-10.62,1.38s-5.66-3.62-7.31-8.39a37,37,0,0,1-2.49-10.86,89.51,89.51,0,0,1-.27-12.23q.27-6,1-11.42t1.25-8.38l-10.21,19.8q-2.76,5.22-5.52,10.17a79.76,79.76,0,0,1-6.34,9.62q-8.84,11.55-14.35,12.24T273,172.26q-2.61-5.91-2.21-16.49a103.89,103.89,0,0,1,3.32-21.86,99.22,99.22,0,0,1,8.13-21.31q5.24-10,12.42-15a23.07,23.07,0,0,1,7-2.88,21.39,21.39,0,0,1,8-.41A18.31,18.31,0,0,1,317,96.93,12.81,12.81,0,0,1,322,102.56Zm-2.48,5.78a7.44,7.44,0,0,1-2.35-2.89,10.86,10.86,0,0,0-1.1-2.34,6.57,6.57,0,0,0-2.48-2.06,19.61,19.61,0,0,0-6.21-1.51q-6.36-.83-12,5.09a59.25,59.25,0,0,0-10.07,14.84,98.33,98.33,0,0,0-7,19.11,85.18,85.18,0,0,0-2.89,18.15c-.18,5.32.45,9.21,1.93,11.68s4.14,2.43,8-.13q3.59-2.47,8.69-10.45T304,140.37q5-9.5,9.1-18.42T319.48,108.34Z"/><path class="cls-1" d="M370.51,163.88c.74-1.83,1.79-4.77,3.17-8.8s3-8.43,5-13.2,4.14-9.62,6.62-14.57a89.62,89.62,0,0,1,8-13.2,34.14,34.14,0,0,1,9.1-8.8,11.62,11.62,0,0,1,10.07-1.37q3.58,1.09,6.49,6a112.53,112.53,0,0,1,5.38,10.45q2.47,5.49,4.69,10.31t4.69,5.91a7.18,7.18,0,0,0,5,.41,20,20,0,0,0,4.83-2.06,30.31,30.31,0,0,0,4.41-3.16,15.88,15.88,0,0,1,4-2.62,2.36,2.36,0,0,1,3.45,1c.83,1.37.42,2.52-1.24,3.43q-2.76,1.38-6.21,3.3a35.62,35.62,0,0,1-7,3,15.93,15.93,0,0,1-7.17.55,10.91,10.91,0,0,1-6.62-4.13,29.66,29.66,0,0,1-4.28-7.15q-1.8-4.12-3.45-8.24a52.78,52.78,0,0,0-3.72-7.57,11.67,11.67,0,0,0-5.11-4.81q-4.14-1.65-8.27,1.65a37,37,0,0,0-8,9.49,109.47,109.47,0,0,0-7.45,14.43q-3.59,8.25-6.48,16.36t-5.25,15.12q-2.34,7-3.72,10.59c-.18.55-.46,1.28-.83,2.2a2,2,0,0,1-1.93,1.37q-4.41,1.11-4.41-4.4a91.67,91.67,0,0,1,1-10.31q1-7.28,2.35-16.49t3.17-19.25q1.78-10,3.45-18.56t3-14.29q1.38-5.77,2.21-6.6c2.76-2.2,4.59-1.28,5.52,2.75,0,.18-.24,1.14-.69,2.88s-1,3.67-1.52,5.78-1.1,4.12-1.66,6-.92,3.16-1.1,3.71q-1.38,5.5-2.62,12.23c-.83,4.5-1.66,9.12-2.48,13.89s-1.61,9.44-2.35,14S371.06,160,370.51,163.88Z"/><path class="cls-1" d="M499.34,102.56c.19-.36.78-1.65,1.8-3.85a38.31,38.31,0,0,1,3.45-6q1.92-2.74,3.44-3t1.52,5A43.36,43.36,0,0,1,507.9,102q-1.66,6.06-3.87,14.3t-4.13,17.6a103.44,103.44,0,0,0-2.21,17.46A42.7,42.7,0,0,0,499.07,165q1.65,5.49,6.9,6,6.06.82,12.69-4.12a80.06,80.06,0,0,0,12.55-11.82,121.39,121.39,0,0,0,10.34-13.75q4.41-6.87,6.35-10.17c1.1-2,2.07-2.7,2.9-2.06s1,1.78.41,3.43A51.75,51.75,0,0,1,546,142.84a115.65,115.65,0,0,1-9.24,12.65,118.12,118.12,0,0,1-11.45,12,46.26,46.26,0,0,1-11.87,8.11c-3.86,1.75-7.4,2.2-10.62,1.38s-5.65-3.62-7.31-8.39A37,37,0,0,1,493,157.69a91.16,91.16,0,0,1-.28-12.23q.27-6,1-11.42t1.24-8.38l-10.21,19.8q-2.76,5.22-5.51,10.17a79.85,79.85,0,0,1-6.35,9.62Q464,176.8,458.51,177.49c-3.68.46-6.38-1.28-8.13-5.23s-2.49-9.44-2.21-16.49a104.51,104.51,0,0,1,3.31-21.86,98.72,98.72,0,0,1,8.14-21.31q5.24-10,12.41-15a23.13,23.13,0,0,1,7-2.88,21.38,21.38,0,0,1,8-.41,18.42,18.42,0,0,1,7.31,2.61A12.79,12.79,0,0,1,499.34,102.56Zm-2.48,5.78a7.31,7.31,0,0,1-2.34-2.89,11.39,11.39,0,0,0-1.11-2.34,6.57,6.57,0,0,0-2.48-2.06,19.61,19.61,0,0,0-6.21-1.51q-6.35-.83-12,5.09a59.25,59.25,0,0,0-10.07,14.84,98.31,98.31,0,0,0-7,19.11,85.89,85.89,0,0,0-2.9,18.15q-.27,8,1.93,11.68t8-.13q3.59-2.47,8.69-10.45t10.07-17.46q5-9.5,9.11-18.42T496.86,108.34Z"/></g></g></svg>