<svg xmlns="http://www.w3.org/2000/svg" viewBox="0 0 524.65 321.54"><defs><style>.cls-1{fill:#71c15e;}</style></defs><g id="Layer_2" data-name="Layer 2"><g id="Layer_2-2" data-name="Layer 2"><path class="cls-1" d="M179.41,161.73A318.46,318.46,0,0,0,140,151.41q-22.26-4.47-42.57-10.7T62.46,125q-14.66-9.54-17-25.88-2-13.62,4.69-27.44A93.25,93.25,0,0,1,69.29,45.56,154.2,154.2,0,0,1,98.38,23.37,176.94,176.94,0,0,1,132.94,7.42,141.38,141.38,0,0,1,168.87.22a86.66,86.66,0,0,1,33.19,3.89,51.35,51.35,0,0,1,22.06,13.62q8.79,9.35,10.35,20T229.2,59q-6.84,10.51-24.41,17.52-5.85.39-4.88-2.14c.65-1.69,2.27-3.57,4.88-5.65s5.33-4.08,8.2-6,4.42-3.17,4.69-3.7q13.66-17.9,8-29.77t-24.4-18.09A78.11,78.11,0,0,0,171.21,8.2a137.77,137.77,0,0,0-33,7,186.17,186.17,0,0,0-32,14.4A155.41,155.41,0,0,0,78.86,49.06a108.79,108.79,0,0,0-19.14,22q-7.23,11.3-7.22,21.4a25.28,25.28,0,0,0,6.44,18.29,58.78,58.78,0,0,0,18,13.43,152.27,152.27,0,0,0,25.58,9.92q14.44,4.29,29.68,8t29.87,7.2a193.25,193.25,0,0,1,26.36,8.17q14.45,5.46,20.7,12.46,3.51-.78,12.49-2.14T240.52,165q10-1.35,18.55-1.94a69.93,69.93,0,0,1,11.32-.2c2.86.53,4.1,1.69,3.71,3.5a5.32,5.32,0,0,1-3.71,3.9A62.59,62.59,0,0,1,257.51,173q-7,.78-14.65,1.17l-15,.78a105.84,105.84,0,0,0-13.67,1.55q8.59,14,4.69,29.19t-16.21,30a178,178,0,0,1-30.85,28.6,298.05,298.05,0,0,1-39.63,24.91A356.91,356.91,0,0,1,89.4,308.25a242.54,242.54,0,0,1-39.83,11.28q-18.16,3.32-31,1.17T2.12,309.61A27.1,27.1,0,0,1,.17,296.38,33.49,33.49,0,0,1,3.88,284.7a50.82,50.82,0,0,1,7.62-10.5q4.68-5.06,9.37-9.34Q31,255.52,42,246.76t22.26-16.54A378.06,378.06,0,0,1,200.1,171.84Q192.69,166,179.41,161.73Zm26.94,16.34a357.65,357.65,0,0,0-84.93,28.41A409.13,409.13,0,0,0,45.47,254l-9.76,7.78q-5.87,4.68-11.33,9.93a124.67,124.67,0,0,0-10,10.7c-3,3.63-4.88,7-5.66,10.12q-3.9,13.62,4.88,18.68t25,3.31q16.2-1.75,37.87-9.15a337.2,337.2,0,0,0,43.54-18.48,369.21,369.21,0,0,0,42-24.91q20.11-13.81,33.19-28.41t17.18-29Q216.51,190.14,206.35,178.07Z"/><path class="cls-1" d="M311.39,132.15q7,7,8.79,18.48A80.53,80.53,0,0,1,320,175a111.14,111.14,0,0,1-7,25.29A88.48,88.48,0,0,1,301,221.46q-6.84,8.76-14.45,12.46a13.86,13.86,0,0,1-14.64-1c-2.6-1.81-4.49-5.06-5.66-9.72a73.41,73.41,0,0,1-2-16.16,127.92,127.92,0,0,1,1.17-19.46,156.73,156.73,0,0,1,3.71-19.26,104.12,104.12,0,0,1,5.27-15.57q2.92-6.6,6.44-9,7.81-5.06,6.64,3.9a59.58,59.58,0,0,1-2.34,6q-2.34,5.64-5.27,14t-5.67,17.9a128.35,128.35,0,0,0-3.9,18.29,41.46,41.46,0,0,0,.39,15.18q1.56,6.42,7,8,7.41,2.32,13.86-5.06A70.12,70.12,0,0,0,302.8,204a137.62,137.62,0,0,0,7.42-21.6Q313,171.46,313.73,166a33,33,0,0,0-2-15.57,65.29,65.29,0,0,0-5.86-11.29q-3.12-4.67-5.07-7.78t.39-5.06q2-1.55,9.76-2.53T329.35,122c2.35-.26,5.6-.58,9.77-1s8.59-.71,13.27-1q13.28-.37,19.72,1.76c4.3,1.42,7.09,3.69,8.4,6.81s1.49,6.81.58,11.09-1.89,9-2.93,14.2q-2.34,10.13-4.1,17.51t-3.51,14.21q-1.76,6.81-3.51,14.2t-4.11,17.91q3.52-4.68,10.35-15.57t15.62-24.32q8.79-13.44,18.75-27.64A290.72,290.72,0,0,1,427.37,125a120.7,120.7,0,0,1,18.15-17.32q8.4-6.22,14.65-3.5,7,3.12,9.17,11.87a65.17,65.17,0,0,1,1.18,20.62,213.44,213.44,0,0,1-3.71,25.11q-2.74,13.23-5.08,24.71a155.38,155.38,0,0,0-2.93,20q-.58,8.57,2.54,10.9,4.68,3.5,12.3-1.56a112.83,112.83,0,0,0,16-13.23,209.58,209.58,0,0,0,16-17.51q7.62-9.35,11.91-14.79,2.73-3.51,5.08-3.31t2,4.47q0,1.56-4.69,7.79t-11.71,14a215.37,215.37,0,0,1-15.43,15.37,90.33,90.33,0,0,1-16.4,12.06q-8,4.48-14.64,4.09t-9.37-9c-1.05-2.85-1.17-7.39-.39-13.62s1.82-13.17,3.12-20.82,2.8-15.57,4.49-23.74a179.49,179.49,0,0,0,3.32-22.38,68.47,68.47,0,0,0-.39-16.73q-1.17-6.61-6.25-7.4-3.51-.37-7,2.92a70.4,70.4,0,0,0-5.46,5.64,398.81,398.81,0,0,0-34,41.06Q394.56,182,380.12,205.31q-.4.8-4.69,7.79a135.69,135.69,0,0,1-9.57,13.62q-5.26,6.61-9.56,9.14t-4.3-5.64a75.85,75.85,0,0,1,1.76-10.31q1.75-8.37,4.68-19.66t6.06-24.13q3.12-12.84,6.24-23.73,3.52-11.69,1.18-17.32a12.33,12.33,0,0,0-8.2-7.4q-5.87-1.74-14.45-.78T330.91,129c-3.38.52-6.7,1-10,1.55S314.51,131.63,311.39,132.15Z"/></g></g></svg>