<svg xmlns="http://www.w3.org/2000/svg" viewBox="0 0 414.67 265.47"><defs><style>.cls-1{fill:#71c15e;}</style></defs><g id="Layer_2" data-name="Layer 2"><g id="Layer_2-2" data-name="Layer 2"><path class="cls-1" d="M3.05,18.93q.2,2,4.2,5.8a111.18,111.18,0,0,0,9.1,7.7q5.1,3.9,10.1,7.3c3.33,2.27,5.67,3.87,7,4.8l2.5,1.7q1.9,1.31,3.9,2.8A14.86,14.86,0,0,1,43,52c.73,1,.7,1.7-.1,2.1a3.66,3.66,0,0,1-4.1-.6c-1.4-1.06-2.5-1.93-3.3-2.6q-2-1.59-6.6-4.5t-9.7-6.5q-5.1-3.6-9.9-7.6A35.61,35.61,0,0,1,2,24.43,10,10,0,0,1,.15,17q.71-3.5,6.5-6.3a80.5,80.5,0,0,1,17.8-5.3q10.8-2.1,23.5-3.3T74.45.53q13.8-.39,26.9-.5t24.6.1q11.51.21,19.7.4c.67,0,2,0,3.9-.1s3.93,0,6,.1a41.25,41.25,0,0,1,5.5.7c1.6.34,2.4.9,2.4,1.7a1.85,1.85,0,0,1-.8,1.7,3.64,3.64,0,0,1-2,.5,15.67,15.67,0,0,1-2.5-.2,14.67,14.67,0,0,0-1.9-.2q-11-1-21.9-1t-21.9-.2q-4,0-13.2.1t-20.9.7Q66.65,4.93,54,6t-23.5,2.8A120.49,120.49,0,0,0,12.05,13Q4.45,15.54,3.05,18.93Zm42.8,147c-.67,1.33-1.4,1.9-2.2,1.7s-1.27-1-1.4-2.5l25-156.6c.67-1.46,1.43-2.06,2.3-1.8s1.3,1.14,1.3,2.6Z"/><path class="cls-1" d="M79.45,115.33q1-2.79,4.1-9.5t7.5-14.7q4.4-8,9.8-16a92.61,92.61,0,0,1,11-13.6,31.3,31.3,0,0,1,11.1-7.6q5.51-2,10.3,2.2a12,12,0,0,1,3.5,7.3,44.44,44.44,0,0,1,.2,10.4q-.49,5.7-1.6,11.8t-1.6,11.3a36.39,36.39,0,0,0,.1,9q.6,3.81,3.6,4.8c1.73.67,3.87.34,6.4-1a45.51,45.51,0,0,0,7.6-5.1,71.46,71.46,0,0,0,7-6.5,35,35,0,0,0,4.4-5.4l2.6-4.8q1.8-1.59,2.7,0a3.06,3.06,0,0,1-.3,3.4,28.59,28.59,0,0,1-3.2,5,59.48,59.48,0,0,1-5.6,6.4,78.82,78.82,0,0,1-7,6.2,30.93,30.93,0,0,1-7.5,4.5,15.22,15.22,0,0,1-7.1,1.2,7.4,7.4,0,0,1-5.6-3.5q-2.81-3.8-2.6-10a99.6,99.6,0,0,1,1.3-12.9q1.09-6.69,2.2-13.2a33.51,33.51,0,0,0,.3-11.1,7.4,7.4,0,0,0-4.2-5.6c-2.27-1.06-4.73-.8-7.4.8q-5.81,3.21-11.8,10.8a143.11,143.11,0,0,0-11.1,16.3q-5.1,8.7-9.1,16.9t-5.8,12.8c-.13.54-.47,1.67-1,3.4a35.13,35.13,0,0,1-1.9,4.9,8.31,8.31,0,0,1-2.5,3.3q-1.4,1-2.8-1.4-.8-1.39-.7-6.8t.8-12.9q.7-7.5,1.9-16.1t2.4-16.4q1.2-7.8,2.3-13.8t1.7-8.4a47.17,47.17,0,0,1,1.3-5.2c.73-2.53,1.57-5.43,2.5-8.7s1.93-6.66,3-10.2,2.1-6.8,3.1-9.8,1.9-5.5,2.7-7.5,1.4-3.13,1.8-3.4a5,5,0,0,1,2.8-.7c.93.07,1.27,1,1,2.7a321.27,321.27,0,0,0-15.9,51.7A309.59,309.59,0,0,0,79.45,115.33Z"/><path class="cls-1" d="M199.45,67.93c.13-.26.57-1.2,1.3-2.8a28.28,28.28,0,0,1,2.5-4.4c.93-1.33,1.77-2.06,2.5-2.2s1.1,1.07,1.1,3.6a31.5,31.5,0,0,1-1.2,5.4q-1.2,4.41-2.8,10.4t-3,12.8a76.13,76.13,0,0,0-1.6,12.7,31.27,31.27,0,0,0,1,9.9q1.2,4,5,4.4,4.4.6,9.2-3a57.57,57.57,0,0,0,9.1-8.6,87.15,87.15,0,0,0,7.5-10c2.13-3.33,3.67-5.8,4.6-7.4s1.5-2,2.1-1.5.7,1.3.3,2.5a37.59,37.59,0,0,1-3.8,7.5,88.43,88.43,0,0,1-15,17.9,33.35,33.35,0,0,1-8.6,5.9,11.49,11.49,0,0,1-7.7,1q-3.49-.9-5.3-6.1a27.16,27.16,0,0,1-1.8-7.9,66.35,66.35,0,0,1-.2-8.9c.13-2.93.37-5.7.7-8.3s.63-4.63.9-6.1l-7.4,14.4c-1.33,2.54-2.67,5-4,7.4a57,57,0,0,1-4.6,7q-6.41,8.4-10.4,8.9c-2.67.34-4.63-.93-5.9-3.8s-1.8-6.86-1.6-12a76.05,76.05,0,0,1,2.4-15.9,72.66,72.66,0,0,1,5.9-15.5,29.37,29.37,0,0,1,9-10.9,17,17,0,0,1,5.1-2.1,15.77,15.77,0,0,1,5.8-.3,13.38,13.38,0,0,1,5.3,1.9A9.37,9.37,0,0,1,199.45,67.93Zm-1.8,4.2A5.44,5.44,0,0,1,196,70a8.25,8.25,0,0,0-.8-1.7,4.68,4.68,0,0,0-1.8-1.5,14.35,14.35,0,0,0-4.5-1.1q-4.6-.6-8.7,3.7a43.22,43.22,0,0,0-7.3,10.8,72.48,72.48,0,0,0-5.1,13.9,62.8,62.8,0,0,0-2.1,13.2c-.13,3.87.33,6.7,1.4,8.5s3,1.77,5.8-.1q2.6-1.8,6.3-7.6t7.3-12.7q3.6-6.9,6.6-13.4T197.65,72.13Z"/><path class="cls-1" d="M232.65,113.53q1.8-2.4,5.3-8T246,93q4.5-6.9,9.6-14.2a151.68,151.68,0,0,1,10.1-13,62.38,62.38,0,0,1,9.3-8.9q4.31-3.19,7.5-1.8a8.36,8.36,0,0,1,4.7,6.1,33.65,33.65,0,0,1,.6,10.6,107.62,107.62,0,0,1-1.9,12.9q-1.39,6.81-2.6,12.7a80.17,80.17,0,0,0-1.5,10.3c-.2,2.94.23,4.8,1.3,5.6,1.6,1.2,3.7.94,6.3-.8a58,58,0,0,0,8.2-6.8,105.45,105.45,0,0,0,8.2-9q3.9-4.8,6.1-7.6c.93-1.2,1.8-1.76,2.6-1.7s1.13.84,1,2.3q0,.81-2.4,4t-6,7.2a109,109,0,0,1-7.9,7.9,46.73,46.73,0,0,1-8.4,6.2,13.72,13.72,0,0,1-7.5,2.1q-3.4-.19-4.8-4.6c-.53-1.46-.6-3.8-.2-7s.93-6.76,1.6-10.7,1.43-8,2.3-12.2a92.38,92.38,0,0,0,1.7-11.5,35.13,35.13,0,0,0-.2-8.6q-.6-3.39-3.2-3.8a4.54,4.54,0,0,0-3.6,1.5,36.87,36.87,0,0,0-2.8,2.9,204.82,204.82,0,0,0-17.4,21.1q-7.8,10.9-15.2,22.9-.19.41-2.4,4a69.47,69.47,0,0,1-4.9,7,19.28,19.28,0,0,1-4.9,4.7q-2.2,1.31-2.2-2.9a44.45,44.45,0,0,1,1.2-6.1q1.2-5.1,3-12.2t3.9-15q2.1-7.89,4-14.6t3.2-11.1a38.74,38.74,0,0,1,1.5-4.6q3.19-2.59,3.6-.8a11.73,11.73,0,0,1-.5,5.2q-.9,3.41-2.1,6.8c-.8,2.27-1.27,3.54-1.4,3.8q-3.19,10.41-5.8,20.9T232.65,113.53Z"/><path class="cls-1" d="M318.05,57.73a256.44,256.44,0,0,1,11.2-39.2c.13-.4.43-1.26.9-2.6s1-2.7,1.6-4.1,1.13-2.7,1.6-3.9.83-1.86,1.1-2c1.33-.93,2.2-1.2,2.6-.8a5,5,0,0,1,.8,2.8c.13.94-.3,2.27-1.3,4a42.8,42.8,0,0,0-2.1,4,178.22,178.22,0,0,0-6.4,18q-2.81,9.41-4.9,19.1t-3.8,19.5q-1.71,9.81-3.5,19,1-1.4,3.9-4.9l6.6-8q3.69-4.5,8-9.4t8-9q3.69-4.09,6.5-6.8c1.86-1.8,3.06-2.76,3.6-2.9a3.19,3.19,0,0,1,2.8.5c.8.6.6,1.57-.6,2.9q-6.4,6.41-12.1,12.4t-11.5,13c.13,1.07.3,2.57.5,4.5s.43,4.07.7,6.4.63,4.77,1.1,7.3,1,5,1.7,7.4q1.8,7,5.2,9.9a10.26,10.26,0,0,0,7.4,2.7,17.15,17.15,0,0,0,8.2-2.8,42.68,42.68,0,0,0,8.1-6.6,48.33,48.33,0,0,0,6.9-9,49.75,49.75,0,0,0,4.6-9.8c.53-1.46,1.26-2.1,2.2-1.9s1.4,1,1.4,2.5q0,1.2-2.4,5.6a70.14,70.14,0,0,1-6.4,9.5,81.74,81.74,0,0,1-9,9.7,28.19,28.19,0,0,1-10.2,6.3,12.41,12.41,0,0,1-10-.8q-4.8-2.49-8.4-11.5a80,80,0,0,1-3.8-12.2,78.06,78.06,0,0,1-1.8-12.6q-6.6,8.2-12.4,16-1,6.81-1.6,13.7t-1,13.9c-.27.94-.57,1.47-.9,1.6a1.13,1.13,0,0,1-1.1-.2,5.71,5.71,0,0,1-1.2-1.1,3.92,3.92,0,0,1-.8-1.3c-.27-.53-.3-2-.1-4.4s.47-5,.8-7.7.67-5.33,1-7.8a41.56,41.56,0,0,1,.9-5.1l.6-3.2Q313.85,78.34,318.05,57.73Z"/><path class="cls-1" d="M266.64,204.47q3.41-11.21,6.4-20.8t4.6-15.2a182.84,182.84,0,0,1-15.7,20.2q-7.5,8.21-12.3,11-5.4,3.2-8.8,2.5a8,8,0,0,1-5.3-3.7,18.13,18.13,0,0,1-2.4-7.8,49.61,49.61,0,0,1,0-9.9,58.15,58.15,0,0,1,1.8-9.8,31.46,31.46,0,0,1,3.1-7.7c.8-1.33,1.74-1.87,2.8-1.6a3.11,3.11,0,0,1,1.2.8c.4.4.4,1.13,0,2.2-.8,2-1.56,4.13-2.3,6.4s-1.36,4.6-1.9,7a40.7,40.7,0,0,0-1.1,12.4c.33,3.47,1.3,5.83,2.9,7.1s3.84,1.33,6.7.2,6.3-3.83,10.3-8.1q3.21-3.4,6.6-7.8t6.4-8.7q3-4.3,5.5-8.2t4.1-6.5a3,3,0,0,1,3.2-1.7q2,.3,1.2,3.5c-.53,2.27-1.3,5.13-2.3,8.6s-2.06,7.17-3.2,11.1l-3.3,11.5q-1.59,5.59-2.8,9.4,6.4-5,11.5-8.9a81.26,81.26,0,0,0,10.7-10.1,3,3,0,0,1,1.8-1.4,1.58,1.58,0,0,1,1.5.3,1.9,1.9,0,0,1,.4,1.6,4.23,4.23,0,0,1-1.1,2.3,36,36,0,0,1-5.6,5.6q-3.8,3.19-7.9,6.5t-7.8,6.1q-3.71,2.81-5.5,4-1.59,4.8-3.2,10.9t-3.7,12.6a121.09,121.09,0,0,1-4.9,12.7,57.54,57.54,0,0,1-6.5,11.1,33.31,33.31,0,0,1-8.5,8,21.23,21.23,0,0,1-11,3.3,40.36,40.36,0,0,1-8.5-1.3,46.82,46.82,0,0,1-10.4-3.8,21.56,21.56,0,0,1-7.6-6.1q-2.7-3.6.1-8,1-1.61,5.2-4.8t10.1-7.3q5.91-4.09,12.8-8.6t13.3-8.6l11.6-7.4Q264,206.27,266.64,204.47Zm-1.8,6q-1.8,1.2-6.7,4.3t-11.1,7.1q-6.19,4-12.9,8.4t-12.4,8.4q-5.7,4-9.4,7t-3.9,4.2q-.6,3.19,3.2,5.5a35.33,35.33,0,0,0,9,3.7,57.22,57.22,0,0,0,10.3,1.8,20.78,20.78,0,0,0,7.5-.4q5.61-1.8,9.8-8a74.77,74.77,0,0,0,7.3-13.8,142.93,142.93,0,0,0,5.3-15.4Q263,215.47,264.84,210.47Z"/><path class="cls-1" d="M322.44,181.27q3.19,0,7.7-.3t7.9-.7c1.47-.27,2.33.2,2.6,1.4a2.66,2.66,0,0,1-.1,1.6c-.2.53-.83.93-1.9,1.2a45.57,45.57,0,0,1-4.7.6c-1.67.13-3.33.2-5,.2h-7.7q-5.6,16-11,22.8t-9.6,7.1c-2.8.2-5.06-1.27-6.8-4.4a25,25,0,0,1-2.7-11.8,47.93,47.93,0,0,1,2.5-15.2,37,37,0,0,1,8.8-14.5,23,23,0,0,1,2.5-9.7,21.17,21.17,0,0,1,5.4-7,11.86,11.86,0,0,1,6.4-2.8,5.61,5.61,0,0,1,5.4,2.8q2.1,3.1,2.5,10.1T322.44,181.27Zm-19-5.8a10.39,10.39,0,0,0-3.6,4.4,47.5,47.5,0,0,0-2.8,7,44.16,44.16,0,0,0-1.7,7.6,49.31,49.31,0,0,0-.5,6q.21,7.2,3.8,9.2t8.2-4.2a60,60,0,0,0,5.7-9.3q2.29-4.69,4.7-10.9a15.58,15.58,0,0,1-13.8-9.8Zm15,6a85.85,85.85,0,0,0,2.2-12.6q.6-7.4-.4-10.8c-.67-2.27-1.6-3.63-2.8-4.1s-2.53-.13-4,1a15.72,15.72,0,0,0-3.9,4.6,24.61,24.61,0,0,0-2.6,6.5,15.12,15.12,0,0,0-.2,6.9,10.4,10.4,0,0,0,3.4,5.7Q312.84,181.07,318.44,181.47Z"/><path class="cls-1" d="M346.44,206.27q3,1,6.9-2.6a56.13,56.13,0,0,0,8-9.6q4.1-6,8-13.1t7-13.4q3.11-6.3,6.9-14.9c.8-1.33,1.6-2,2.4-2a2.14,2.14,0,0,1,1.4.5c.4.33.47,1.1.2,2.3a67,67,0,0,1-2.1,6.8q-1.9,5.59-3.8,13.1a138.94,138.94,0,0,0-3,15.6,40.59,40.59,0,0,0,.3,14.3q1.2,6,3.8,8.1a6.19,6.19,0,0,0,5.7,1.3,16.39,16.39,0,0,0,6.4-3.6,36,36,0,0,0,5.9-6.4,57.46,57.46,0,0,0,5.5-9.5q2.7-5.7,5.1-10.9a5.89,5.89,0,0,1,1.1-1.5,1.19,1.19,0,0,1,1.5-.3,1.67,1.67,0,0,1,1,1.9,14.17,14.17,0,0,1-1.2,3.5c-1.07,2.4-2.33,5.07-3.8,8a66,66,0,0,1-5.1,8.5,57.59,57.59,0,0,1-6.3,7.5,26,26,0,0,1-7.2,5.2,10.17,10.17,0,0,1-7.3,1.1q-3.3-.9-5.5-4.9a28.52,28.52,0,0,1-2.8-8,46.17,46.17,0,0,1-.8-8.6,81.42,81.42,0,0,1,.5-8.9q.5-4.5,1.1-8.9c-.67,1.33-1.67,3.27-3,5.8s-2.9,5.23-4.7,8.1-3.73,5.7-5.8,8.5a37.4,37.4,0,0,1-6.6,7,17.5,17.5,0,0,1-7,3.6,7.86,7.86,0,0,1-6.7-1.6q-3.4-2.6-4-9.1a64,64,0,0,1,.4-14.1,114.45,114.45,0,0,1,2.9-14.7,88.89,88.89,0,0,1,3.5-10.9,7.16,7.16,0,0,1,1.6-2.4,1.68,1.68,0,0,1,1.4-.2,3.37,3.37,0,0,1,1.1.6c.33.27.37,1.07.1,2.4q-.4,1.6-1.6,5.5t-2.5,8.7q-1.3,4.8-2.3,10.1a68.94,68.94,0,0,0-1.2,9.9,23.82,23.82,0,0,0,.8,7.9A6.09,6.09,0,0,0,346.44,206.27Z"/></g></g></svg>