<svg xmlns="http://www.w3.org/2000/svg" viewBox="0 0 210.25 115.73"><defs><style>.cls-1{fill:#71c15e;}</style></defs><g id="Layer_2" data-name="Layer 2"><g id="Layer_2-2" data-name="Layer 2"><path class="cls-1" d="M62.22,54.73q3.41-11.2,6.4-20.8t4.6-15.2a182.84,182.84,0,0,1-15.7,20.2q-7.5,8.2-12.3,11-5.4,3.2-8.79,2.5a8,8,0,0,1-5.31-3.7,18.13,18.13,0,0,1-2.4-7.8,49.61,49.61,0,0,1,0-9.9,59.17,59.17,0,0,1,1.8-9.8,31.69,31.69,0,0,1,3.1-7.7c.81-1.33,1.74-1.87,2.81-1.6a3.08,3.08,0,0,1,1.19.8c.4.4.4,1.13,0,2.2-.79,2-1.56,4.13-2.29,6.4s-1.37,4.6-1.9,7a40.08,40.08,0,0,0-1.1,12.4c.33,3.47,1.29,5.83,2.89,7.1s3.84,1.33,6.71.2,6.29-3.83,10.29-8.1q3.21-3.41,6.61-7.8t6.39-8.7q3-4.3,5.5-8.2t4.11-6.5A3,3,0,0,1,78,7q2,.3,1.2,3.5c-.53,2.27-1.29,5.13-2.29,8.6s-2.07,7.17-3.21,11.1S71.49,38,70.43,41.73s-2,6.86-2.81,9.4q6.41-5,11.5-8.9a81.91,81.91,0,0,0,10.71-10.1,2.92,2.92,0,0,1,1.79-1.4,1.56,1.56,0,0,1,1.5.3,1.9,1.9,0,0,1,.4,1.6,4.28,4.28,0,0,1-1.09,2.3,37,37,0,0,1-5.6,5.6Q83,43.72,78.93,47t-7.81,6.1q-3.69,2.81-5.5,4Q64,61.93,62.43,68c-1.07,4.06-2.31,8.27-3.71,12.6a121,121,0,0,1-4.89,12.7,58.58,58.58,0,0,1-6.5,11.1,33.64,33.64,0,0,1-8.5,8,21.29,21.29,0,0,1-11,3.3,40.27,40.27,0,0,1-8.5-1.3,46.46,46.46,0,0,1-10.4-3.8,21.39,21.39,0,0,1-7.6-6.1q-2.71-3.6.1-8c.66-1.07,2.4-2.67,5.19-4.8s6.17-4.57,10.1-7.3,8.21-5.6,12.8-8.6,9-5.87,13.31-8.6S51,62,54.43,59.83,60.49,55.93,62.22,54.73Zm-1.79,6C59.22,61.53,57,63,53.72,65s-7,4.43-11.1,7.1-8.43,5.46-12.9,8.4-8.6,5.73-12.39,8.4-6.94,5-9.4,7-3.77,3.4-3.91,4.2q-.6,3.2,3.2,5.5a35.33,35.33,0,0,0,9,3.7,57.22,57.22,0,0,0,10.3,1.8,20.74,20.74,0,0,0,7.5-.4c3.74-1.2,7-3.87,9.81-8a75.35,75.35,0,0,0,7.29-13.8,145.21,145.21,0,0,0,5.31-15.4Q58.62,65.73,60.43,60.73Z"/><path class="cls-1" d="M118,31.53c2.14,0,4.7-.1,7.7-.3s5.63-.43,7.9-.7c1.47-.27,2.34.2,2.6,1.4a2.66,2.66,0,0,1-.1,1.6c-.2.53-.83.93-1.9,1.2a45.22,45.22,0,0,1-4.7.6c-1.67.13-3.33.2-5,.2h-7.7q-5.59,16-11,22.8t-9.6,7.1c-2.8.2-5.06-1.27-6.8-4.4a25,25,0,0,1-2.7-11.8A47.93,47.93,0,0,1,89.22,34,37,37,0,0,1,98,19.53a23.13,23.13,0,0,1,2.5-9.7,21.17,21.17,0,0,1,5.4-7,11.86,11.86,0,0,1,6.4-2.8,5.61,5.61,0,0,1,5.4,2.8q2.1,3.11,2.5,10.1T118,31.53Zm-19-5.8a10.39,10.39,0,0,0-3.6,4.4,47.06,47.06,0,0,0-2.8,7,45.12,45.12,0,0,0-1.7,7.6,49.31,49.31,0,0,0-.5,6q.21,7.2,3.8,9.2t8.2-4.2a60,60,0,0,0,5.7-9.3q2.31-4.69,4.7-10.9a17.67,17.67,0,0,1-8.4-2.9A17.69,17.69,0,0,1,99,25.73Zm15,6a85.85,85.85,0,0,0,2.2-12.6c.4-4.93.27-8.54-.4-10.8s-1.6-3.63-2.8-4.1-2.53-.14-4,1a15.87,15.87,0,0,0-3.9,4.6,24.61,24.61,0,0,0-2.6,6.5,15.12,15.12,0,0,0-.2,6.9,10.4,10.4,0,0,0,3.4,5.7Q108.42,31.33,114,31.73Z"/><path class="cls-1" d="M142,56.53q3,1,6.9-2.6a56.13,56.13,0,0,0,8-9.6q4.1-6,8-13.1t7-13.4q3.11-6.3,6.9-14.9c.8-1.34,1.6-2,2.4-2a2.09,2.09,0,0,1,1.4.5c.4.33.47,1.1.2,2.3a67,67,0,0,1-2.1,6.8q-1.91,5.6-3.8,13.1a138.94,138.94,0,0,0-3,15.6,40.59,40.59,0,0,0,.3,14.3q1.2,6,3.8,8.1a6.19,6.19,0,0,0,5.7,1.3,16.39,16.39,0,0,0,6.4-3.6,36,36,0,0,0,5.9-6.4,57.46,57.46,0,0,0,5.5-9.5q2.7-5.7,5.1-10.9a5.89,5.89,0,0,1,1.1-1.5,1.19,1.19,0,0,1,1.5-.3,1.67,1.67,0,0,1,1,1.9,14.17,14.17,0,0,1-1.2,3.5c-1.07,2.4-2.33,5.07-3.8,8a66,66,0,0,1-5.1,8.5,57.59,57.59,0,0,1-6.3,7.5,26,26,0,0,1-7.2,5.2,10.17,10.17,0,0,1-7.3,1.1q-3.3-.9-5.5-4.9a28.52,28.52,0,0,1-2.8-8,46.17,46.17,0,0,1-.8-8.6,81.42,81.42,0,0,1,.5-8.9q.5-4.5,1.1-8.9c-.67,1.33-1.67,3.27-3,5.8s-2.9,5.23-4.7,8.1-3.73,5.7-5.8,8.5a37.4,37.4,0,0,1-6.6,7,17.63,17.63,0,0,1-7,3.6,7.86,7.86,0,0,1-6.7-1.6q-3.41-2.6-4-9.1a63.93,63.93,0,0,1,.4-14.1,114.45,114.45,0,0,1,2.9-14.7,88.89,88.89,0,0,1,3.5-10.9,7,7,0,0,1,1.6-2.4,1.68,1.68,0,0,1,1.4-.2,3.37,3.37,0,0,1,1.1.6c.33.27.37,1.07.1,2.4q-.41,1.6-1.6,5.5t-2.5,8.7q-1.3,4.8-2.3,10.1a68.94,68.94,0,0,0-1.2,9.9,23.82,23.82,0,0,0,.8,7.9A6.09,6.09,0,0,0,142,56.53Z"/></g></g></svg>